<svg width="630" height="470" viewBox="0 0 630 470" fill="none" xmlns="http://www.w3.org/2000/svg">
<g clip-path="url(#clip0)">
<path d="M154.795 418.099C153.82 414.572 153.932 410.803 152.451 407.383C152.92 405.963 152.532 404.505 152.682 403.072C152.457 404.168 153.088 405.358 152.251 406.374C152.488 402.43 149.932 399.272 149.225 395.59C149.938 394.636 149.269 393.446 149.769 392.3C149.144 393.278 150.019 394.443 149.144 395.197C148.442 391.845 148.063 388.435 148.013 385.011C148.296 383.363 148.31 381.68 148.056 380.027C147.858 378.905 148.029 377.749 148.544 376.731C149.031 376.993 148.813 377.529 148.994 377.909C148.85 377.373 149.119 376.738 148.619 376.283C148.537 374.972 148.731 373.659 149.188 372.427C149.375 372.666 149.503 372.945 149.563 373.243C149.623 373.54 149.612 373.847 149.532 374.14C149.419 373.554 149.863 372.414 149.282 371.311C149.613 362.969 149.369 354.596 150.432 346.286C151.126 346.909 150.613 347.731 150.944 348.778C150.669 347.532 151.126 346.597 150.488 345.793C151.113 343.301 150.901 341.333 147.95 341.345C149.394 333.67 150.919 326.15 152.132 318.575C152.326 317.391 151.119 315.983 150.563 314.681C150.913 313.049 151.119 311.416 150.457 309.803C148.893 307.764 146.959 306.035 144.756 304.707C138.242 300.495 131.891 296.047 125.477 291.686C124.285 290.88 123.291 289.815 122.571 288.571C122.292 287.671 121.793 286.853 121.119 286.193C120.445 285.533 119.616 285.051 118.708 284.789C113.769 281.905 109.606 278.011 105.243 274.391C104.099 273.445 103.367 271.937 102.586 270.61C101.473 268.741 101.617 267.003 103.249 265.302C109.143 259.172 115.751 253.87 122.489 248.712C124.196 247.409 124.596 246.282 123.815 244.351C121.989 239.759 124.721 232.931 128.884 230.022C132.372 227.567 135.673 227.43 139.392 229.174C140.236 229.567 141.268 230.458 142.43 229.573C143.593 228.688 142.43 227.081 143.712 226.296C144.268 227.168 144.787 228.526 145.662 226.52C146.156 225.399 146.556 224.234 147.05 223.113C147.356 222.415 147.362 221.212 148.488 221.468C149.613 221.723 149.507 222.863 149.369 223.785C149.269 224.408 149.05 225.081 148.869 225.779C150.569 225.891 150.694 224.533 151.032 223.574C151.332 222.714 151.757 221.81 152.601 222.116C152.965 222.342 153.229 222.698 153.339 223.111C153.449 223.524 153.398 223.963 153.195 224.34C152.994 225.021 152.899 225.729 152.913 226.439C152.622 228.01 151.957 229.488 150.976 230.75C152.42 229.704 152.138 227.573 153.545 226.452C156.233 225.206 156.045 227.312 155.776 228.651C155.361 231.213 154.165 233.586 152.351 235.448C150.888 236.887 150.757 238.469 151.207 240.245C151.657 242.021 152.263 243.653 154.726 242.737C155.338 242.565 155.984 242.554 156.602 242.706C158.139 242.949 160.121 243.229 159.865 245.198C159.608 247.166 157.583 246.674 156.289 246.313C153.951 245.653 153.226 246.512 153.401 248.712C153.457 249.409 153.589 250.163 153.038 250.774C152.668 249.964 152.574 249.056 152.77 248.188C152.876 248.637 152.363 249.727 153.045 250.761C152.667 251.915 152.667 253.159 153.045 254.312C157.708 250.774 162.29 247.198 167.297 244.195C169.641 242.787 171.848 242.799 174.348 243.765C181.85 246.662 188.726 250.898 196.071 254.082C206.916 258.785 217.562 264.193 229.533 265.732C231.497 265.997 233.355 266.78 234.915 268C235.815 268.697 236.603 269.009 237.272 268.199C240.172 264.71 244.692 264.847 248.355 263.109C249 263.199 249.654 263.199 250.299 263.109C251.369 262.846 252.458 262.665 253.556 262.567C254.568 262.567 256.487 261.944 256.369 263.14C256.25 264.336 257.419 266.155 254.987 267.308C252.087 268.685 249.055 269.893 246.292 271.669C244.229 273.002 245.26 273.538 246.342 274.267C247.036 274.753 248.449 274.853 247.673 276.036C247.394 276.461 246.974 276.775 246.486 276.924C245.999 277.073 245.475 277.048 245.004 276.852C241.941 275.438 240.072 277.108 238.403 279.344C237.628 279.463 237.034 278.36 236.171 279.008C234.921 278.541 234.965 277.513 235.027 276.466C235.27 275.659 235.368 274.815 235.315 273.974C235.312 273.58 235.343 273.186 235.409 272.797C235.371 272.498 235.809 272.255 235.509 271.949C235.429 272.115 235.372 272.291 235.34 272.473C235.215 273.631 235.428 274.79 235.14 275.918C234.677 277.095 235.271 278.223 235.271 279.375C235.44 279.749 234.646 280.621 235.84 280.447C236.087 280.166 236.401 279.952 236.753 279.824C237.934 280.086 237.428 281.157 237.734 281.843C235.29 286.035 234.665 286.241 230.064 284.789C224.769 283.113 219.756 280.484 214.099 279.992C213.617 279.745 213.083 279.612 212.541 279.606C211.998 279.599 211.461 279.719 210.973 279.955C203.103 278.609 195.971 275.102 188.244 271.974C189.826 276.958 191.289 281.656 192.808 286.303C193.252 287.674 194.164 288.963 194.32 290.346C195.258 298.67 199.653 305.797 202.159 313.572C202.066 313.977 202.159 313.422 202.009 313.815C201.859 314.207 202.009 314.756 201.859 315.21C202.072 314.861 201.859 314.351 202.278 314.083C203.272 319.067 205.404 323.677 206.948 328.468C208.235 332.374 208.523 336.286 206.598 340.112C205.972 339.887 205.347 339.576 204.86 340.361C203.81 342.51 205.035 344.828 204.335 347.014C203.997 348.074 204.366 349.301 203.635 350.285C202.666 351.593 202.797 353.101 202.834 354.596C202.866 355.917 202.922 357.238 202.303 358.465C201.615 357.842 202.128 357.026 201.797 355.973C202.072 357.169 201.628 358.116 202.241 358.926C202.109 360.565 202.116 362.228 201.834 363.842C200.561 371.269 200.464 378.85 201.547 386.307C201.078 387.428 201.328 388.575 201.397 389.715C201.484 390.126 202.059 389.677 201.647 389.752C201.49 389.752 201.415 389.752 201.397 389.59C201.303 389.017 201.172 388.431 201.709 387.977C204.16 396.331 207.11 404.542 209.042 413.046C208.935 413.451 209.004 412.903 208.879 413.289C208.754 413.675 208.879 414.236 208.723 414.691C208.929 414.336 208.723 413.812 209.148 413.551C210.086 415.27 209.873 417.183 209.961 419.008C210.367 427.107 211.511 435.075 212.511 443.087C212.81 446.282 212.906 449.493 212.799 452.7C212.799 455.977 209.673 458.008 209.792 461.534C209.836 462.78 206.666 464.605 204.166 464.699C203.353 464.699 202.566 464.524 201.778 465.035C194.083 469.988 185.657 467.216 177.505 467.272C176.461 467.272 176.405 466.817 176.486 465.689C176.705 462.662 178.105 460.942 180.999 460.219C185.331 459.135 188.226 456.039 191.151 452.968C192.001 452.083 192.02 451.155 191.951 450.114C191.239 439.162 190.857 428.179 189.657 417.276C189.032 411.47 186.707 405.919 184.1 400.592C181.937 396.169 179.012 392.026 178.549 386.886C179.174 386.07 178.655 385.105 178.912 384.239C178.687 384.108 178.605 384.108 178.668 384.239C178.827 384.491 178.89 384.792 178.845 385.087C178.8 385.382 178.651 385.651 178.424 385.846C177.69 382.721 177.308 379.524 177.286 376.314C177.484 376.105 177.594 375.829 177.593 375.542C177.584 375.159 177.601 374.776 177.643 374.395C177.455 374.669 177.593 375.124 177.174 375.28C176.486 374.034 176.767 372.688 176.549 371.392C176.424 371.148 176.366 370.875 176.38 370.601C176.349 369.978 176.799 369.355 176.33 368.788C176.109 368.755 175.884 368.777 175.674 368.851C175.392 369.336 175.611 369.835 175.58 370.321L175.542 370.726C175.311 371.804 175.086 372.875 174.855 373.947C174.398 373.691 174.636 373.162 174.417 372.813C174.592 373.349 174.298 373.99 174.792 374.445C174.758 376.632 174.387 378.8 173.692 380.874C173.571 380.815 173.471 380.721 173.404 380.605C173.337 380.488 173.307 380.354 173.317 380.22C173.17 380.785 173.246 381.385 173.529 381.896C173.602 382.404 173.585 382.92 173.479 383.422C169.56 392.836 171.717 402.15 173.842 411.457C174.692 415.195 175.555 418.933 176.099 422.671C176.561 425.849 179.699 427.743 179.793 431.013C179.412 432.218 179.399 433.508 179.756 434.72C180.312 437.156 178.205 438.589 177.593 440.551C176.611 443.704 176.092 446.993 175.298 450.208C174.63 452.918 173.967 455.678 171.073 457.03C169.254 456.45 167.353 457.123 165.528 456.675C167.203 457.179 169.035 456.307 170.666 457.21C166.384 457.709 162.059 459.079 157.939 456.531C157.777 455.715 156.977 455.229 156.833 454.394C156.527 452.905 157.327 451.902 158.289 450.912C159.046 450.133 160.115 449.572 160.333 448.351C162.746 443.367 162.371 441.436 158.364 437.76C157.9 437.368 157.576 436.837 157.439 436.246C156.814 430.322 154.595 424.634 154.851 418.584C154.991 418.454 155.089 418.285 155.133 418.099C155.22 417.725 155.133 417.332 155.239 416.958C155.008 417.32 155.251 417.843 154.795 418.099Z" fill="#323232"/>
<path d="M96.2162 449.697C97.3852 454.943 96.56 460.12 95.6661 465.272C95.6089 465.664 95.4659 466.038 95.2473 466.368C93.5345 468.686 86.4958 469.888 83.7016 468.368C83.5891 466.699 84.1516 465.048 83.8266 463.384C84.6142 459.26 87.1272 455.696 87.6397 451.441C87.7773 450.258 88.0336 449.043 88.1398 447.828C88.8024 446.364 88.3024 444.869 88.4211 443.741C88.4848 443.953 88.4811 444.179 88.4106 444.389C88.3401 444.599 88.2062 444.782 88.0273 444.912C84.9893 434.292 81.9554 423.67 78.9258 413.046C78.1273 410.159 76.8853 407.412 75.2439 404.903C71.2119 398.773 69.3929 391.727 67.1612 384.612C62.4854 387.653 57.2095 387.653 51.8961 387.422C50.1333 387.347 48.3518 387.422 46.614 387.16C42.9759 386.643 40.713 387.746 39.2627 391.416C38.0125 394.531 35.7996 397.259 34.0056 400.137C33.0867 400.474 33.7618 401.259 33.5555 401.795C33.5055 401.919 33.5555 402.387 33.7243 401.795C33.8088 401.739 33.8882 401.677 33.9618 401.608C34.3682 402.43 34.5391 403.349 34.4557 404.262C34.3369 404.408 34.2554 404.582 34.2181 404.766C34.2116 405.146 34.1803 405.525 34.1243 405.9C34.3431 405.551 34.1243 405.04 34.5494 404.779C35.0873 405.98 35.2799 407.306 35.1058 408.61C34.6194 410.236 34.6194 411.968 35.1058 413.594C34.3744 418.89 32.4053 423.843 30.905 428.926C29.9236 432.278 28.7547 435.555 28.8109 439.125C28.7544 440.863 29.1667 442.584 30.0049 444.109C30.2424 445.753 30.0049 447.404 30.1237 449.049C29.436 451.896 26.3355 453.765 26.8606 457.148C26.9169 457.509 26.3855 457.771 25.9229 457.703C25.2978 457.597 25.1978 457.08 25.0978 456.569C24.8603 455.292 25.2041 453.366 24.0664 452.943C22.5849 452.395 20.8471 453.329 19.3093 453.94C15.9775 455.273 13.4646 458.301 9.63891 458.637C8.82002 458.712 8.02613 459.023 7.21349 459.111C5.96328 459.248 4.25049 460.3 3.59412 458.749C2.93776 457.198 3.81916 455.547 5.22565 454.426C8.66374 451.666 12.3769 449.161 15.1398 445.591C17.2965 442.813 19.3968 440.028 20.0782 436.471C20.322 436.552 20.3845 436.683 20.272 436.869C20.4158 436.926 20.5158 436.869 20.5033 436.645C20.468 436.178 20.5017 435.707 20.6033 435.25C20.6969 434.929 20.7535 434.599 20.7721 434.265C21.8722 425.612 20.9908 416.896 21.7285 408.236C21.9473 405.645 21.5472 403.066 21.3222 400.505C21.1601 398.455 21.2145 396.394 21.4847 394.356C22.1098 392.057 22.5911 389.74 23.285 387.503C23.9789 385.267 24.9603 383.229 21.6722 382.239C21.4624 382.197 21.2681 382.099 21.1111 381.954C20.954 381.809 20.8404 381.624 20.7827 381.419C20.7251 381.213 20.7257 380.996 20.7845 380.791C20.8433 380.586 20.958 380.401 21.1159 380.258C25.1978 375.448 25.1353 369.044 27.4545 363.586C28.6847 360.407 29.7509 357.167 30.6487 353.88C30.8925 353.07 31.4364 351.674 30.2174 351.475C26.8731 350.927 27.8858 348.721 28.1483 346.778C28.2796 345.768 28.1108 344.684 28.7734 343.794C28.8866 343.853 28.981 343.943 29.0461 344.053C29.1112 344.163 29.1445 344.289 29.1422 344.417C29.2791 343.853 29.2058 343.26 28.936 342.747C29.0172 338.542 28.7609 334.336 29.3548 330.137C30.0174 325.415 28.7297 320.967 26.9231 316.668C26.2355 315.042 25.5666 313.447 25.7417 311.641C26.3668 310.831 25.9104 309.877 26.2042 308.663C25.8604 309.709 26.373 310.532 25.6854 311.155L23.9539 302.925C24.5102 302.096 24.0414 301.143 24.2852 300.277C24.0664 300.146 23.9851 300.152 24.0476 300.277C24.2058 300.528 24.2688 300.828 24.2252 301.121C24.1817 301.415 24.0345 301.683 23.8101 301.878C23.0412 299.112 23.0412 296.128 21.5159 293.58C21.1096 291.761 19.7719 290.795 18.2216 290.035L9.68892 279.874C9.75768 278.846 9.16383 278.379 8.25117 278.186C5.20065 275.513 1.23747 273.476 0.837402 268.71C1.31288 267.299 1.33908 265.775 0.912415 264.349C0.953256 262.48 1.59532 260.674 2.74398 259.197C8.66374 251.802 13.8646 243.858 20.3407 236.887C22.7974 234.245 24.3914 229.922 29.4235 231.803C29.8786 231.763 30.3069 231.571 30.6401 231.26C30.9732 230.948 31.1919 230.534 31.2614 230.084C33.468 227.934 34.3869 225.025 35.7559 222.409C36.1015 221.682 36.5499 221.008 37.0874 220.409C37.3191 220.196 37.6205 220.074 37.9355 220.066C38.2506 220.058 38.5578 220.164 38.8001 220.365C39.3502 220.832 38.7189 221.175 38.5313 221.611C37.6562 223.623 36.581 225.586 36.4247 228.464L41.3193 223.804C41.6696 223.861 41.9933 224.026 42.2454 224.275C42.4975 224.524 42.6654 224.845 42.7258 225.193L39.8378 229.554C43.4759 228.931 45.1012 225.542 48.1267 224.502C48.8706 224.358 49.7895 223.636 50.0771 225.069C47.6829 227.305 45.4513 229.716 42.2695 231.778C45.8701 232.694 48.2143 228.913 51.4023 230.42C51.2335 232.021 49.877 232.352 48.8581 232.912C45.8638 234.538 42.8071 236.058 39.7878 237.641C39.2502 237.921 38.5376 238.195 38.6314 238.887C38.6596 239.041 38.7187 239.187 38.805 239.318C38.8913 239.449 39.0031 239.56 39.1338 239.647C39.2645 239.734 39.4113 239.793 39.5656 239.822C39.7198 239.851 39.8783 239.849 40.0316 239.815C44.6324 238.606 45.9201 242.668 48.3518 244.917C48.5456 245.098 48.9769 245.098 48.7331 245.497C46.8953 248.718 49.1144 250.811 51.3773 251.764C54.8654 253.234 54.234 255.951 54.2215 258.443C54.2215 259.689 53.834 260.362 55.3155 261.053C56.9907 261.826 56.5657 263.894 56.722 265.377C56.822 266.529 55.3467 266.704 54.3591 266.965C52.8588 267.358 51.2835 267.588 50.1396 268.76C49.652 268.946 49.7645 269.383 49.7833 269.725C49.7833 269.943 49.7833 270.118 49.6332 270.249C50.0583 270.398 49.852 269.819 50.1458 269.812C51.0772 271.177 50.7209 273.033 51.8899 274.304C52.44 274.597 52.8963 274.927 52.8838 275.65C52.6711 277.085 52.7262 278.546 53.0463 279.961C53.1651 281.581 52.4212 282.97 51.7961 284.372C50.2083 287.842 50.2021 287.842 53.1401 290.895C53.7652 289.406 53.6089 287.854 53.9777 286.434C54.4653 284.634 54.1403 282.783 54.2965 280.97C55.0654 279.581 53.4651 277.787 55.0404 276.535C57.3783 279.164 60.085 278.765 63.0605 277.781C64.8733 277.158 66.8799 277.12 68.799 276.815C69.1928 276.946 68.6427 276.859 69.0241 277.014C69.4054 277.17 69.9805 277.058 70.4368 277.195C70.068 276.996 69.5366 277.195 69.2741 276.746C73.5186 275.164 78.2444 275.251 82.5201 273.102C80.7636 270.062 77.9068 268.012 76.4003 265.003C76.4691 263.969 75.9127 263.483 74.9501 263.352C71.1244 263.42 68.3989 265.638 65.6735 268.336C65.3047 265.807 66.3924 264.305 68.0176 263.103C68.7678 262.548 69.893 262.125 69.7054 261.115C69.5617 260.287 68.3552 260.411 67.6551 260.056C64.5295 258.474 60.8977 258.113 58.1284 255.789C57.5033 255.278 56.4844 254.879 57.1783 253.92C57.6534 253.266 58.3347 253.683 59.0536 254.119C60.1806 254.697 61.3614 255.164 62.5792 255.515C63.3106 255.446 63.7044 255.184 63.2043 254.418C61.5478 253.222 59.8975 252.013 58.2035 250.83C57.5784 250.362 56.4969 249.908 57.1345 249.023C57.5346 248.481 58.666 248.531 59.4224 249.023C61.1727 250.151 62.9105 251.291 64.6358 252.468C65.1421 252.811 65.7297 253.428 66.2298 252.929C66.7299 252.431 66.1798 251.764 65.836 251.197C64.9421 249.721 64.0607 248.226 63.2793 246.681C63.1841 246.45 63.1458 246.2 63.1676 245.952C63.1893 245.704 63.2705 245.464 63.4043 245.254C64.0732 244.631 64.4608 245.428 64.8671 245.808C66.5986 247.434 67.08 250.169 69.9055 251.415C69.6804 249.771 69.4429 248.437 69.3491 247.098C69.3054 246.444 68.9741 245.453 69.8617 245.229C71.0244 244.917 71.2932 246.519 71.2744 246.78C70.9994 250.038 73.7749 251.509 75.1689 253.77C75.944 255.016 76.8004 255.103 77.9193 254.113C79.9009 252.368 81.8138 252.898 83.339 254.736C88.7649 261.221 94.6472 267.327 99.5355 274.254C100.786 275.993 100.073 277.656 99.0604 279.145C96.8976 282.341 93.6408 283.936 89.9839 284.665C81.9276 286.284 74.2886 289.527 67.5363 294.197C66.7924 294.701 66.2861 295.137 66.2048 296.066C65.7985 300.813 65.2797 305.548 64.9046 310.295C64.4858 315.559 65.7923 320.045 70.6431 323.035C72.1058 323.939 73.2498 325.359 74.5375 326.543C75.1137 327.914 76.2002 329.01 77.5693 329.602C80.8011 333.227 83.064 337.507 85.5956 341.607C86.1207 342.46 86.8083 343.364 85.4331 344.217C84.4767 344.84 84.9893 345.681 85.3519 346.416C89.4776 354.702 89.4713 364.091 92.4531 372.682C92.8344 373.785 92.1843 374.127 91.4341 374.551C89.39 375.797 87.421 377.13 85.3331 378.289C83.6015 379.223 82.9077 380.332 83.0202 382.438C83.439 390.45 83.9829 398.281 89.6463 404.866C91.6967 407.24 92.6656 410.473 93.0594 413.719C92.9205 413.873 92.8332 414.067 92.8094 414.273C92.8094 414.579 92.8094 414.896 92.8094 415.195C92.9907 415.071 92.9969 414.784 93.2532 414.722C94.0533 416.354 93.8783 418.117 93.9408 419.843C94.1096 426.297 94.2346 432.758 94.3721 439.212C94.2345 439.345 94.1407 439.517 94.1033 439.704C94.0918 440.086 94.0584 440.466 94.0033 440.844C94.2221 440.495 94.0033 439.972 94.4347 439.717L96.31 446.034C96.335 447.199 96.0162 448.445 96.2162 449.697Z" fill="#323232"/>
<path d="M52.6337 275.544C52.865 274.846 51.8898 274.921 51.8898 274.335C53.8027 273.843 54.5153 275.052 55.0154 276.535C54.8091 277.83 55.703 279.126 55.0154 280.422C54.2715 282.484 55.1904 284.683 54.4965 286.746L53.8714 292.278C53.6255 292.242 53.3857 292.173 53.1588 292.072C49.8832 289.58 48.6455 286.777 51.4335 283.07C52.0586 282.229 52.1461 280.964 52.4774 279.893C52.3274 278.435 52.6087 276.989 52.6337 275.544Z" fill="#F7F7F7"/>
<path d="M21.4847 394.356C21.6722 397.353 21.9785 400.356 22.0097 403.352C22.091 410.498 22.266 417.681 21.9347 424.79C21.7722 428.309 21.9347 431.942 20.7845 435.38C20.3399 433.85 20.3226 432.228 20.7345 430.689L20.822 427.294C21.4472 422.709 20.9346 418.105 21.1158 413.513C21.1721 411.987 20.8783 410.436 21.3596 408.934V404.623C20.7345 403.109 21.5409 401.433 20.8158 399.932C20.397 398.007 20.2907 396.1 21.4847 394.356Z" fill="#0D0D0E"/>
<path d="M21.3596 408.947C21.3596 414.296 21.3763 419.65 21.4096 425.008C21.4096 425.818 21.5721 426.683 20.822 427.306C20.9095 421.182 20.572 415.065 21.3596 408.947Z" fill="#323232"/>
<path d="M42.7258 225.218C42.3993 225.104 42.1031 224.917 41.8595 224.672C41.6159 224.427 41.4312 224.13 41.3193 223.804C41.6271 223.292 41.9966 222.819 42.4195 222.396C43.1822 221.773 43.826 220.078 44.9574 221.15C45.9264 222.041 44.7012 223.137 44.026 223.978C43.616 224.415 43.1819 224.829 42.7258 225.218Z" fill="#101212"/>
<path d="M153.532 226.408C152.951 228.9 152.313 231.392 149.644 232.638C150.274 230.355 151.384 228.231 152.901 226.408H153.532Z" fill="#EAEAEB"/>
<path d="M143.687 226.252C142.974 227.23 144.862 229.23 142.405 229.529C142.205 228.626 141.943 227.723 141.83 226.807C141.718 225.891 140.918 224.757 142.118 224.415C143.187 224.116 143.549 225.293 143.687 226.252Z" fill="#0B0B0D"/>
<path d="M160.302 448.389C161.09 449.896 159.527 450.22 158.896 450.881C157.814 451.99 157.114 453.111 157.339 454.687C157.281 454.747 157.21 454.791 157.131 454.818C157.052 454.844 156.968 454.851 156.886 454.838C156.804 454.825 156.726 454.793 156.659 454.744C156.592 454.695 156.538 454.631 156.502 454.556C156.426 453.722 156.264 452.881 156.67 452.064C157.562 450.562 158.809 449.301 160.302 448.389Z" fill="#090A0C"/>
<path d="M83.8267 463.391C84.6643 465.079 84.7956 466.748 83.7016 468.374C82.4264 466.692 83.3703 465.048 83.8267 463.391Z" fill="#323232"/>
<path d="M30.1174 449.074C29.1235 447.448 29.2798 445.797 29.9986 444.134C30.4323 444.881 30.6704 445.725 30.6911 446.589C30.7119 447.452 30.5146 448.307 30.1174 449.074Z" fill="#323232"/>
<path d="M118.682 284.802C121.183 284.802 122.389 286.172 122.546 288.583L118.682 284.802Z" fill="#0A0B0D"/>
<path d="M18.2216 290.023C20.2532 290.34 21.666 291.231 21.5159 293.567L18.2216 290.023Z" fill="#0A0B0C"/>
<path d="M77.5818 329.546C75.7065 329.408 74.6188 328.437 74.55 326.487C75.8135 327.222 76.8594 328.277 77.5818 329.546Z" fill="#0A0B0D"/>
<path d="M148.063 380.052C148.51 380.808 148.743 381.672 148.735 382.55C148.727 383.428 148.48 384.288 148.019 385.036C147.437 383.354 147.656 381.703 148.063 380.052Z" fill="#323232"/>
<path d="M202.835 354.534C201.672 352.833 202.172 351.419 203.635 350.223C203.642 351.697 203.371 353.16 202.835 354.534Z" fill="#050607"/>
<path d="M170.635 457.248H164.853C166.928 456.625 169.01 456.045 171.042 457.067L170.885 457.26L170.635 457.248Z" fill="#08080A"/>
<path d="M237.722 281.743L236.715 279.874C236.602 279.822 236.502 279.744 236.425 279.646C236.348 279.548 236.296 279.433 236.274 279.311C236.251 279.189 236.258 279.063 236.295 278.944C236.331 278.825 236.396 278.716 236.484 278.628C237.409 277.936 237.834 278.796 238.391 279.251C238.903 280.304 238.328 281.039 237.722 281.743Z" fill="#060606"/>
<path d="M96.2163 449.697C95.7639 449.176 95.5197 448.507 95.5301 447.817C95.5405 447.128 95.8047 446.467 96.2725 445.959C97.0789 447.211 96.8789 448.457 96.2163 449.697Z" fill="#323232"/>
<path d="M150.444 309.84C151.607 311.441 151.282 313.073 150.551 314.718C149.888 313.105 150.394 311.466 150.444 309.84Z" fill="#050608"/>
<path d="M152.251 406.374L152.532 402.443C152.876 404.106 153.463 405.776 152.451 407.383C152.382 407.047 152.313 406.71 152.251 406.374Z" fill="#323232"/>
<path d="M176.818 370.676L176.568 371.386L175.567 370.72L175.43 370.825L175.299 370.72C175.167 369.903 174.867 369.069 175.511 368.321L176.599 368.358C177.274 369.075 176.961 369.885 176.818 370.676Z" fill="#9C9D9E"/>
<path d="M35.0996 413.619C34.6421 412.868 34.4002 412.006 34.4002 411.127C34.4002 410.248 34.6421 409.386 35.0996 408.635C35.4775 410.275 35.4775 411.979 35.0996 413.619Z" fill="#323232"/>
<path d="M63.1918 254.399C63.6294 255.097 65.4547 254.786 64.8608 255.945C64.3795 256.879 63.2855 256.032 62.5604 255.496L63.1918 254.399Z" fill="#E6E6E6"/>
<path d="M88.0524 444.919L88.3712 443.536C88.7025 445.006 89.2588 446.476 88.1649 447.834L88.0524 444.919Z" fill="#020204"/>
<path d="M20.7346 430.702L20.7846 435.393C20.5846 435.673 20.3908 435.673 20.1907 435.393C20.0428 433.809 20.228 432.211 20.7346 430.702Z" fill="#323232"/>
<path d="M149.132 395.197C149.2 394.113 149.269 393.023 149.344 391.939C149.882 393.185 150.313 394.431 149.225 395.59L149.063 395.421L149.132 395.197Z" fill="#0A0B0D"/>
<path d="M31.2614 230.096C31.4052 231.492 30.7426 232.109 29.4236 231.816C29.7982 231.033 30.4541 230.42 31.2614 230.096Z" fill="#0A0B0D"/>
<path d="M33.9618 401.651C33.8618 402.125 33.7556 402.598 33.5118 403.738C33.2492 402.013 33.0429 400.979 33.5118 399.938C33.5118 399.907 33.7118 399.938 33.7931 399.938C33.8801 399.992 33.9581 400.06 34.0243 400.138L33.9618 401.651Z" fill="#323232"/>
<path d="M20.8095 399.944C21.9785 401.396 21.2221 403.059 21.3534 404.636C20.8148 403.134 20.6287 401.529 20.8095 399.944Z" fill="#323232"/>
<path d="M201.709 387.945L201.428 390.032C201.015 388.743 200.59 387.466 201.547 386.294C201.597 386.83 201.653 387.391 201.709 387.945Z" fill="#323232"/>
<path d="M179.724 434.758C179.305 434.228 179.08 433.572 179.087 432.898C179.094 432.223 179.332 431.571 179.762 431.051C180.368 432.29 180.106 433.524 179.724 434.758Z" fill="#020305"/>
<path d="M0.912455 264.367C1.35245 265.013 1.58139 265.779 1.56797 266.56C1.55454 267.34 1.29939 268.098 0.837442 268.728C0.410781 267.302 0.436981 265.779 0.912455 264.367Z" fill="#323232"/>
<path d="M149.269 371.336C150.3 372.501 149.794 373.785 149.413 375.074L149.175 372.464L149.269 371.336Z" fill="#323232"/>
<path d="M202.241 358.895C201.159 357.967 201.797 356.87 202.078 355.78L202.303 358.378C202.339 358.413 202.366 358.456 202.383 358.504C202.399 358.551 202.405 358.602 202.399 358.652C202.393 358.702 202.375 358.749 202.348 358.792C202.32 358.834 202.284 358.869 202.241 358.895Z" fill="#030407"/>
<path d="M23.8101 301.866C23.8976 301.174 23.9913 300.476 24.1789 299.006C24.5664 300.875 24.8415 301.934 23.9538 302.906L23.8101 301.866Z" fill="#050608"/>
<path d="M25.7104 311.142L25.9354 308.538C26.3855 309.622 26.7543 310.694 25.7666 311.653C25.724 311.627 25.6879 311.592 25.6612 311.55C25.6344 311.508 25.6176 311.461 25.6122 311.411C25.6067 311.362 25.6128 311.312 25.6298 311.265C25.6468 311.219 25.6744 311.177 25.7104 311.142Z" fill="#040506"/>
<path d="M178.443 385.84C178.53 385.167 178.618 384.488 178.774 383.248C179.262 384.88 179.462 385.914 178.568 386.874C178.524 386.531 178.487 386.189 178.443 385.84Z" fill="#030506"/>
<path d="M250.286 263.053C249.661 263.938 248.986 263.931 248.342 263.053C248.459 262.908 248.608 262.792 248.776 262.712C248.944 262.632 249.128 262.59 249.314 262.59C249.501 262.59 249.685 262.632 249.853 262.712C250.021 262.792 250.169 262.908 250.286 263.053Z" fill="#010201"/>
<path d="M74.9252 263.302C76.3254 263.003 76.6755 263.396 76.3754 264.953C75.9191 264.405 75.4315 263.857 74.9252 263.302Z" fill="#08090B"/>
<path d="M50.1459 269.844L49.9208 271.6C49.6873 271.159 49.5434 270.676 49.4973 270.179C49.4512 269.682 49.5037 269.18 49.652 268.704C49.652 268.66 49.8333 268.616 49.9146 268.635C49.9959 268.654 50.0834 268.735 50.1709 268.791L50.1459 269.844Z" fill="#060708"/>
<path d="M150.475 345.831C151.463 346.765 151.101 347.837 150.644 348.946L150.419 346.335C150.381 346.303 150.351 346.262 150.332 346.215C150.313 346.168 150.306 346.118 150.312 346.068C150.317 346.018 150.335 345.97 150.364 345.929C150.392 345.888 150.431 345.854 150.475 345.831Z" fill="#323232"/>
<path d="M8.25122 278.192C9.65771 277.968 9.98277 278.341 9.68897 279.88L8.25122 278.192Z" fill="#0A0B0B"/>
<path d="M50.077 225.081C49.5645 224.421 48.8268 224.62 48.1267 224.514C48.4007 224.219 48.7709 224.03 49.1714 223.981C49.572 223.932 49.977 224.026 50.3146 224.246C50.5896 224.427 50.6896 224.95 50.077 225.081Z" fill="#1A1B1D"/>
<path d="M210.973 279.874C212.024 279.002 213.061 278.971 214.099 279.911C213.089 280.289 211.974 280.275 210.973 279.874Z" fill="#323232"/>
<path d="M202.278 314.02L202.034 316.363C201.459 315.117 201.409 314.27 202.159 313.51C202.241 313.563 202.299 313.646 202.321 313.741C202.344 313.836 202.328 313.936 202.278 314.02Z" fill="#323232"/>
<path d="M204.86 340.305C204.116 339.439 205.085 339.682 205.372 339.57C205.91 339.339 206.498 339.121 206.623 340.055C206.073 340.535 205.466 340.404 204.86 340.305Z" fill="#060708"/>
<path d="M28.961 342.734C29.7049 343.445 29.5861 344.279 29.3236 345.226C28.6359 344.878 29.036 344.211 28.7985 343.775L28.961 342.734Z" fill="#323232"/>
<path d="M34.5494 404.822C34.4682 405.483 34.3931 406.137 34.2744 407.152C33.7305 405.906 33.693 405.053 34.4556 404.305C34.4963 404.333 34.531 404.368 34.5578 404.409C34.5846 404.45 34.6029 404.496 34.6117 404.544C34.6204 404.592 34.6194 404.642 34.6087 404.69C34.598 404.737 34.5779 404.783 34.5494 404.822Z" fill="#323232"/>
<path d="M20.1908 435.399H20.7846V437.841C19.8595 437.598 20.347 436.869 20.0782 436.477L20.1908 435.399Z" fill="#040508"/>
<path d="M177.193 375.274C177.286 374.794 177.374 374.32 177.561 373.361C177.974 374.719 178.186 375.566 177.305 376.308L177.193 375.274Z" fill="#323232"/>
<path d="M94.4159 439.636L94.1283 441.966C93.597 440.72 93.5407 439.866 94.3534 439.131C94.3919 439.159 94.4243 439.195 94.4485 439.236C94.4727 439.277 94.4883 439.323 94.4941 439.37C94.5 439.417 94.4961 439.465 94.4826 439.511C94.4691 439.557 94.4464 439.599 94.4159 439.636Z" fill="#323232"/>
<path d="M69.2991 276.722L71.737 277.008C70.4305 277.544 69.5804 277.631 68.824 276.79C68.848 276.751 68.8802 276.718 68.9185 276.693C68.9568 276.668 69.0001 276.652 69.0454 276.645C69.0907 276.638 69.137 276.642 69.1808 276.655C69.2246 276.668 69.265 276.691 69.2991 276.722Z" fill="#030405"/>
<path d="M209.148 413.52C209.079 414.18 209.01 414.847 208.904 415.887C208.317 414.604 208.279 413.775 209.042 413.015C209.082 413.041 209.117 413.074 209.145 413.114C209.172 413.153 209.191 413.198 209.201 413.245C209.211 413.292 209.211 413.34 209.202 413.388C209.193 413.435 209.175 413.48 209.148 413.52Z" fill="#323232"/>
<path d="M93.2344 414.641C93.1469 415.121 93.0532 415.594 92.8719 416.51C92.4406 415.202 92.2468 414.373 93.0719 413.613C93.1219 413.974 93.1782 414.305 93.2344 414.641Z" fill="#323232"/>
<path d="M173.498 381.896C172.654 381.198 172.998 380.332 173.354 379.435C173.454 379.915 173.561 380.395 173.661 380.874C173.604 381.211 173.554 381.553 173.498 381.896Z" fill="#323232"/>
<path d="M148.606 376.308C149.532 376.931 149.163 377.84 149.188 378.8C148.244 378.177 148.856 377.336 148.531 376.738C148.505 376.706 148.486 376.668 148.475 376.628C148.464 376.588 148.462 376.546 148.469 376.505C148.476 376.465 148.492 376.426 148.516 376.392C148.54 376.357 148.571 376.329 148.606 376.308Z" fill="#050608"/>
<path d="M156.67 452.064L156.783 454.693C156.834 454.758 156.871 454.834 156.89 454.914C156.91 454.994 156.911 455.078 156.895 455.159C156.879 455.24 156.846 455.317 156.797 455.384C156.749 455.451 156.686 455.506 156.614 455.547C155.926 454.376 155.564 453.211 156.67 452.064Z" fill="#323232"/>
<path d="M156.614 455.559L156.783 454.706H157.339C157.339 455.404 158.764 455.659 157.908 456.575C157.614 456.556 157.333 456.449 157.102 456.268C156.871 456.087 156.701 455.84 156.614 455.559Z" fill="#050507"/>
<path d="M174.798 374.439C173.867 373.722 174.248 372.838 174.611 371.947C174.692 372.607 174.78 373.274 174.861 373.934C174.893 373.97 174.918 374.012 174.932 374.058C174.947 374.104 174.951 374.153 174.945 374.201C174.939 374.249 174.923 374.295 174.898 374.336C174.873 374.377 174.839 374.412 174.798 374.439Z" fill="#323232"/>
<path d="M154.795 418.099C154.864 417.432 154.933 416.765 155.026 415.831C155.651 417.002 155.651 417.843 154.845 418.603C154.807 418.575 154.775 418.539 154.751 418.497C154.727 418.455 154.713 418.409 154.708 418.362C154.703 418.314 154.709 418.266 154.724 418.221C154.739 418.176 154.763 418.134 154.795 418.099Z" fill="#050608"/>
<path d="M141.143 265.545L142.349 264.922C143.206 264.531 144.139 264.335 145.081 264.349C146.012 264.567 146.912 265.408 146.256 266.037C144.212 268.006 145.287 269.694 146.294 271.501C145.443 273.145 145.9 274.859 145.925 276.541C146.112 276.958 146.55 276.41 146.175 276.591C146.012 276.672 145.925 276.591 145.9 276.441C145.798 275.21 145.777 273.974 145.837 272.741C147.769 271.943 147.294 273.631 147.437 274.416C147.738 276.067 147.437 277.949 149.419 278.821C149.532 278.759 149.659 278.722 149.788 278.715C150.369 279.238 150.194 279.83 149.944 280.435C150.973 283.557 151.333 286.859 151.001 290.128C150.894 291.169 151.676 292.77 150.375 293.119C149.407 293.38 148.5 292.078 147.988 291.038C147.373 289.851 146.644 288.727 145.812 287.68C143.668 285.007 142.43 282.023 142.749 278.528C142.643 276.323 143.143 274.086 142.368 271.918C141.724 270.705 141.259 269.407 140.986 268.062C140.838 267.485 140.754 266.894 140.736 266.299C140.792 266.012 140.933 265.749 141.143 265.545Z" fill="#993429"/>
<path d="M143.574 278.971C143.124 282.148 144.312 284.789 146.425 287.032C147.537 288.21 148.413 289.368 148 291.082C146.387 289.998 144.875 288.764 142.999 288.141C142.342 288.044 141.735 287.736 141.269 287.264C140.803 286.792 140.504 286.181 140.418 285.524C139.03 283.503 137.855 281.344 136.911 279.083C136.379 278.809 136.404 278.528 136.911 278.235L139.311 273.077C139.405 271.625 138.955 270.161 139.449 268.716C139.961 268 140.142 266.635 141.543 267.632C141.692 268.914 142.118 270.149 142.793 271.252C144.118 273.719 142.668 276.466 143.574 278.971Z" fill="#FBFBFA"/>
<path d="M149.419 278.865C149.181 279.176 149.356 280.111 148.513 279.537C147.854 279.122 147.321 278.537 146.969 277.844C146.618 277.15 146.462 276.375 146.519 275.6C146.481 274.477 146.385 273.356 146.231 272.242C145.687 271.999 145.825 271.619 146.018 271.22C145.468 270.03 143.806 270.161 143.324 268.728C143.556 267.296 146.656 267.32 145.656 264.928C145.131 264.529 144.081 264.878 144.056 263.794L149.15 261.153C148.144 267.227 148.65 273.021 149.419 278.865Z" fill="#F8F6F6"/>
<path d="M141.143 265.545L141.086 266.286C140.374 266.99 140.13 267.981 139.58 268.778C139.516 269.133 139.315 269.449 139.021 269.66C138.727 269.87 138.363 269.959 138.005 269.906C134.767 269.283 132.766 266.38 129.534 265.769C129.909 264.455 130.853 263.962 131.535 263.277C132.91 261.875 134.098 261.041 136.017 262.922C137.336 264.205 139.411 264.71 141.143 265.545Z" fill="#F8F8F8"/>
<path d="M143.499 250.861C143.618 251.995 142.874 252.287 142.249 252.649C141.624 253.01 141.361 252.474 141.099 252.026C139.349 249.092 137.617 246.151 135.823 243.248C135.754 243.178 135.703 243.093 135.674 243C135.644 242.907 135.637 242.808 135.653 242.712C135.669 242.615 135.707 242.524 135.765 242.445C135.823 242.366 135.898 242.302 135.985 242.257C136.611 241.721 136.861 242.307 137.186 242.662C139.061 244.656 139.649 247.646 142.462 248.892C143.062 249.172 143.224 250.306 143.499 250.861Z" fill="#EFEFEF"/>
<path d="M236.484 278.678L236.715 279.924C236.634 280.341 236.547 280.759 236.459 281.17C234.815 281.793 234.09 281.382 234.584 279.556C234.659 278.248 234.727 276.946 234.796 275.637C235.284 275.55 235.646 275.563 235.29 276.204C235.146 277.276 235.359 278.192 236.484 278.678Z" fill="#E1E2E4"/>
<path d="M138.005 269.906L139.255 268.704C139.292 268.644 139.343 268.595 139.405 268.562C139.466 268.528 139.535 268.51 139.605 268.51C139.675 268.51 139.744 268.528 139.805 268.562C139.866 268.595 139.918 268.644 139.955 268.704C139.655 270.149 140.274 271.731 139.267 273.065C138.255 272.273 138.799 270.828 138.005 269.906Z" fill="#060809"/>
<path d="M150.113 259.178C150.207 257.776 150.338 256.412 151.988 255.508C152.057 257.29 151.188 258.306 150.113 259.178Z" fill="#DDDEDE"/>
<path d="M235.296 276.179L234.802 275.613C234.734 274.124 234.377 272.603 235.296 271.252C236.115 271.931 235.259 272.94 235.784 273.675C235.828 274.529 236.028 275.444 235.296 276.179Z" fill="#ABACAE"/>
<path d="M140.393 285.524L142.974 288.141C140.955 288.409 140.149 287.481 140.393 285.524Z" fill="#090B0D"/>
<path d="M153.001 250.686C151.813 249.584 152.632 248.263 152.807 247.011L152.995 250.699L153.001 250.686Z" fill="#020305"/>
<path d="M234.59 279.531C234.59 280.777 235.284 281.238 236.465 281.145C236.395 281.307 236.289 281.451 236.156 281.566C236.022 281.681 235.864 281.765 235.694 281.811C235.523 281.857 235.344 281.865 235.17 281.832C234.997 281.8 234.832 281.729 234.69 281.625C233.765 281.12 234.265 280.254 234.59 279.531Z" fill="#DCDCDD"/>
<path d="M144.056 263.788C144.262 264.623 145.237 264.38 145.656 264.922L142.349 264.966L144.056 263.788Z" fill="#96352B"/>
<path d="M150.175 237.304C150.494 238.301 150.569 238.893 150.213 239.522C149.657 238.893 149.813 238.264 150.175 237.304Z" fill="#040506"/>
<path d="M149.938 280.497L149.788 278.777C149.81 278.587 149.865 278.401 149.95 278.229C150.175 277.936 150.432 278.005 150.444 278.36C150.482 279.089 150.682 279.905 149.938 280.497Z" fill="#050609"/>
<path d="M175.492 368.34L175.28 370.738C174.723 369.866 174.317 369.025 175.492 368.34Z" fill="#050507"/>
<path d="M176.818 370.676L176.593 368.358C177.861 369.019 177.361 369.841 176.818 370.676Z" fill="#050608"/>
<path d="M136.867 278.235V279.083C135.667 279.706 136.242 278.615 136.154 278.279C136.067 277.943 135.929 277.469 136.511 277.475C136.648 277.482 136.754 277.967 136.867 278.235Z" fill="#323232"/>
<path d="M235.353 270.735C235.515 270.33 235.89 269.987 236.196 270.342C236.325 270.49 236.423 270.662 236.485 270.849C236.546 271.035 236.569 271.232 236.554 271.427C236.538 271.622 236.483 271.813 236.393 271.987C236.303 272.161 236.179 272.316 236.028 272.442C235.24 272.093 235.909 271.152 235.353 270.735Z" fill="#323232"/>
<path d="M235.353 270.734C236.34 271.002 235.784 271.881 236.028 272.442L235.784 273.644C235.059 272.946 235.421 272.037 235.296 271.22C235.334 271.061 235.353 270.898 235.353 270.734Z" fill="#C4C5C6"/>
<path d="M36.1309 277.531C38.9502 279.843 41.5944 282.434 44.6449 284.384C48.3955 286.808 48.9644 289.91 47.5766 294.664C45.0762 287.537 39.8816 283.207 35.2745 278.466L36.1309 277.531Z" fill="#F6F6F7"/>
<path d="M23.4163 271.108C22.5349 270.242 21.6347 269.401 20.7783 268.51C18.4717 266.093 18.4967 263.875 20.9471 261.657C21.3347 261.302 21.4597 262.012 21.5347 262.368C22.0098 262.86 22.6599 263.184 22.9224 263.863C23.2039 265.937 23.6619 267.984 24.2914 269.981C24.2289 270.529 24.3539 271.233 23.4163 271.108Z" fill="#E7E7E7"/>
<path d="M23.4163 271.108C23.9664 270.791 23.9414 270.23 24.0101 269.707C23.8476 268.878 23.7726 268.068 24.5352 267.445C24.9611 268.124 25.3391 268.832 25.6666 269.563C26.0542 270.635 27.0981 272.055 25.8229 272.809C24.5477 273.563 24.2289 271.713 23.4163 271.108Z" fill="#A1A2A4"/>
<path d="M24.5352 267.445C24.6067 268.237 24.4228 269.032 24.0101 269.713C22.6474 267.9 22.0223 265.975 22.7599 263.701C22.9599 263.47 23.1537 263.477 23.3475 263.701C24.0396 264.836 24.447 266.12 24.5352 267.445Z" fill="#979899"/>
<path d="M23.335 263.713H22.7474C21.8973 263.663 21.2597 263.427 21.5347 262.368L22.2348 260.025C22.8412 261.414 23.36 262.467 23.335 263.713Z" fill="#8A8B8D"/>
<path d="M52.6337 275.544C52.9355 276.235 53.0808 276.985 53.0592 277.738C53.0376 278.492 52.8496 279.232 52.5087 279.905C51.6961 278.416 51.5398 276.964 52.6337 275.544Z" fill="#040406"/>
<path d="M54.5153 286.727C54.5466 284.609 54.134 282.453 55.0342 280.403C54.9216 282.534 55.6343 284.715 54.5153 286.727Z" fill="#242527"/>
<path d="M28.0983 436.664V440.956H27.7983V436.664H28.0983Z" fill="#08090B"/>
<path d="M143.574 278.971C142.743 276.479 143.406 273.793 142.774 271.264C144.624 273.644 143.193 276.41 143.574 278.971Z" fill="#96352B"/>
<path d="M146.019 271.22C146.094 271.563 146.162 271.906 146.231 272.242C146.144 273.758 146.054 275.272 145.962 276.784C145.562 274.89 145.075 273.021 146.019 271.22Z" fill="#90271D"/>
<path d="M139.98 268.716H139.311C139.936 267.906 139.605 266.423 141.118 266.299C141.261 266.747 141.411 267.196 141.555 267.644C140.499 267.271 140.618 268.535 139.98 268.716Z" fill="#555658"/>
</g>
<path d="M309.058 187.91C323.443 214.913 335.724 238.794 349.578 261.813C358.01 275.877 367.091 289.456 380.501 299.434C388.447 305.35 397.419 309.452 406.219 313.805C413.06 317.049 418.72 322.344 422.413 328.953C426.413 336.19 429.99 343.672 433.863 350.967C435.096 353.271 434.253 354.226 432.212 355.268C424.733 359.111 417.423 363.268 409.902 366.995C406.115 368.872 405.244 370.79 407.379 374.727C421.14 400.121 434.778 425.578 448.29 451.098C449.893 454.094 451.578 454.862 454.399 452.84C455.45 452.09 456.704 451.607 457.811 450.925C471.626 441.658 486.892 437.266 503.514 435.37C525.392 432.866 545.119 423.716 563.457 411.585C573.965 404.65 583.565 396.739 591.52 386.822C595.137 382.299 595.125 380.448 591.217 375.988C584.799 368.681 576.474 363.996 568.28 359.132C558.128 353.082 547.875 347.214 539.168 339.008C525.74 326.372 519.741 310.631 519.305 292.547C519.1 279.229 520.698 265.944 524.055 253.055C524.557 250.805 525.532 248.689 526.916 246.846C528.301 245.004 530.062 243.477 532.082 242.369C536.091 240.056 539.932 237.429 543.991 235.208C546.91 233.647 549.015 231.671 548.805 228.177C548.721 226.565 548.176 225.01 547.236 223.697C546.296 222.384 544.999 221.369 543.499 220.77C538.186 218.465 532.77 216.412 527.384 214.284C491.143 199.949 455.512 184.242 421.172 165.611C404.376 156.505 390.717 143.992 378.877 129.133C370.044 118.051 361.118 107.017 350.891 97.2431C343.978 90.6557 336.58 84.6742 327.75 80.634C311.668 73.2703 295.787 74.2963 279.913 81.0983C277.917 81.9484 275.837 82.715 273.88 83.5445C268.298 85.9277 266.298 89.5763 267.309 95.5662C269.489 108.489 275.519 119.965 281.035 131.607C290.557 151.697 300.504 171.55 309.058 187.91Z" fill="#323232"/>
<defs>
<clipPath id="clip0">
<rect width="256" height="249" fill="white" transform="translate(0.537354 220.066)"/>
</clipPath>
</defs>
</svg>
