<svg width="257" height="250" viewBox="0 0 257 250" fill="none" xmlns="http://www.w3.org/2000/svg">
<g clip-path="url(#clip0)">
<path d="M154.795 198.099C153.82 194.572 153.932 190.803 152.451 187.383C152.92 185.963 152.532 184.505 152.682 183.072C152.457 184.168 153.088 185.358 152.251 186.374C152.488 182.43 149.932 179.272 149.225 175.59C149.938 174.636 149.269 173.446 149.769 172.3C149.144 173.278 150.019 174.443 149.144 175.197C148.442 171.845 148.063 168.435 148.013 165.011C148.296 163.363 148.31 161.68 148.056 160.027C147.858 158.905 148.029 157.749 148.544 156.731C149.031 156.993 148.813 157.529 148.994 157.909C148.85 157.373 149.119 156.738 148.619 156.283C148.537 154.972 148.731 153.659 149.188 152.427C149.375 152.666 149.503 152.945 149.563 153.243C149.623 153.54 149.612 153.847 149.532 154.14C149.419 153.554 149.863 152.414 149.282 151.311C149.613 142.969 149.369 134.596 150.432 126.286C151.126 126.909 150.613 127.731 150.944 128.778C150.669 127.532 151.126 126.597 150.488 125.793C151.113 123.301 150.901 121.333 147.95 121.345C149.394 113.67 150.919 106.15 152.132 98.5745C152.326 97.3908 151.119 95.9829 150.563 94.6808C150.913 93.0485 151.119 91.4163 150.457 89.8027C148.893 87.7636 146.959 86.035 144.756 84.7066C138.242 80.4951 131.891 76.0469 125.477 71.6859C124.285 70.8796 123.291 69.8146 122.571 68.5709C122.292 67.6706 121.793 66.8534 121.119 66.1932C120.445 65.5331 119.616 65.0506 118.708 64.7893C113.769 61.9049 109.606 58.0111 105.243 54.3915C104.099 53.4445 103.367 51.9369 102.586 50.6099C101.473 48.7409 101.617 47.0027 103.249 45.302C109.143 39.1716 115.751 33.8699 122.489 28.7115C124.196 27.4094 124.596 26.2818 123.815 24.3505C121.989 19.759 124.721 12.931 128.884 10.0216C132.372 7.56694 135.673 7.42988 139.392 9.17428C140.236 9.56677 141.268 10.4577 142.43 9.573C143.593 8.68834 142.43 7.081 143.712 6.29603C144.268 7.16822 144.787 8.52636 145.662 6.5203C146.156 5.39891 146.556 4.2339 147.05 3.1125C147.356 2.41475 147.362 1.21236 148.488 1.46779C149.613 1.72322 149.507 2.8633 149.369 3.78534C149.269 4.40834 149.05 5.08118 148.869 5.77894C150.569 5.89108 150.694 4.53294 151.032 3.57352C151.332 2.71378 151.757 1.81044 152.601 2.11571C152.965 2.34181 153.229 2.69758 153.339 3.11069C153.449 3.52381 153.398 3.96329 153.195 4.33981C152.994 5.02114 152.899 5.72925 152.913 6.43931C152.622 8.00985 151.957 9.48804 150.976 10.7505C152.42 9.70383 152.138 7.57317 153.545 6.45178C156.233 5.20578 156.045 7.31151 155.776 8.65096C155.361 11.2131 154.165 13.586 152.351 15.4479C150.888 16.887 150.757 18.4694 151.207 20.245C151.657 22.0205 152.263 23.6528 154.726 22.737C155.338 22.5651 155.984 22.5544 156.602 22.7058C158.139 22.9488 160.121 23.2291 159.865 25.1978C159.608 27.1665 157.583 26.6743 156.289 26.313C153.951 25.6526 153.226 26.5123 153.401 28.7115C153.457 29.4093 153.589 30.1631 153.038 30.7736C152.668 29.9641 152.574 29.0562 152.77 28.1882C152.876 28.6367 152.363 29.727 153.045 30.7612C152.667 31.9149 152.667 33.1586 153.045 34.3123C157.708 30.7736 162.29 27.1976 167.297 24.1948C169.641 22.7868 171.848 22.7993 174.348 23.7649C181.85 26.6618 188.726 30.8982 196.071 34.0818C206.916 38.7854 217.562 44.193 229.533 45.7318C231.497 45.9969 233.355 46.7798 234.915 47.9995C235.815 48.6973 236.603 49.0088 237.272 48.1989C240.172 44.7101 244.692 44.8472 248.355 43.109C249 43.1993 249.654 43.1993 250.299 43.109C251.369 42.8463 252.458 42.6651 253.556 42.567C254.568 42.567 256.487 41.944 256.369 43.1401C256.25 44.3363 257.419 46.1555 254.987 47.308C252.087 48.6848 249.055 49.8934 246.292 51.669C244.229 53.0022 245.26 53.538 246.342 54.2669C247.036 54.7528 248.449 54.8525 247.673 56.0362C247.394 56.4608 246.974 56.7748 246.486 56.9238C245.999 57.0728 245.475 57.0475 245.004 56.8523C241.941 55.4381 240.072 57.1078 238.403 59.3443C237.628 59.4627 237.034 58.36 236.171 59.0079C234.921 58.5407 234.965 57.5127 235.027 56.4661C235.27 55.6589 235.368 54.8152 235.315 53.9741C235.312 53.5796 235.343 53.1856 235.409 52.7966C235.371 52.4976 235.809 52.2546 235.509 51.9493C235.429 52.1154 235.372 52.2915 235.34 52.4727C235.215 53.6314 235.428 54.7902 235.14 55.9178C234.677 57.0953 235.271 58.2229 235.271 59.3755C235.44 59.7493 234.646 60.6215 235.84 60.447C236.087 60.1663 236.401 59.9521 236.753 59.824C237.934 60.0857 237.428 61.1573 237.734 61.8426C235.29 66.0353 234.665 66.2409 230.064 64.7893C224.769 63.1135 219.756 60.4844 214.099 59.9923C213.617 59.7446 213.083 59.6123 212.541 59.6058C211.998 59.5994 211.461 59.7189 210.973 59.9549C203.103 58.6092 195.971 55.1017 188.244 51.9743C189.826 56.9582 191.289 61.6557 192.808 66.3032C193.252 67.6738 194.164 68.9634 194.32 70.3465C195.258 78.6697 199.653 85.7968 202.159 93.5719C202.066 93.9768 202.159 93.4223 202.009 93.8148C201.859 94.2073 202.009 94.7556 201.859 95.2104C202.072 94.8615 201.859 94.3506 202.278 94.0827C203.272 99.0667 205.404 103.677 206.948 108.468C208.235 112.374 208.523 116.286 206.598 120.112C205.972 119.887 205.347 119.576 204.86 120.361C203.81 122.51 205.035 124.828 204.335 127.014C203.997 128.074 204.366 129.301 203.635 130.285C202.666 131.593 202.797 133.101 202.834 134.596C202.866 135.917 202.922 137.238 202.303 138.465C201.615 137.842 202.128 137.026 201.797 135.973C202.072 137.169 201.628 138.116 202.241 138.926C202.109 140.565 202.116 142.228 201.834 143.842C200.561 151.269 200.464 158.85 201.547 166.307C201.078 167.428 201.328 168.575 201.397 169.715C201.484 170.126 202.059 169.677 201.647 169.752C201.49 169.752 201.415 169.752 201.397 169.59C201.303 169.017 201.172 168.431 201.709 167.977C204.16 176.331 207.11 184.542 209.042 193.046C208.935 193.451 209.004 192.903 208.879 193.289C208.754 193.675 208.879 194.236 208.723 194.691C208.929 194.336 208.723 193.812 209.148 193.551C210.086 195.27 209.873 197.183 209.961 199.008C210.367 207.107 211.511 215.075 212.511 223.087C212.81 226.282 212.906 229.493 212.799 232.7C212.799 235.977 209.673 238.008 209.792 241.534C209.836 242.78 206.666 244.605 204.166 244.699C203.353 244.699 202.566 244.524 201.778 245.035C194.083 249.988 185.657 247.216 177.505 247.272C176.461 247.272 176.405 246.817 176.486 245.689C176.705 242.662 178.105 240.942 180.999 240.219C185.331 239.135 188.226 236.039 191.151 232.968C192.001 232.083 192.02 231.155 191.951 230.114C191.239 219.162 190.857 208.179 189.657 197.276C189.032 191.47 186.707 185.919 184.1 180.592C181.937 176.169 179.012 172.026 178.549 166.886C179.174 166.07 178.655 165.105 178.912 164.239C178.687 164.108 178.605 164.108 178.668 164.239C178.827 164.491 178.89 164.792 178.845 165.087C178.8 165.382 178.651 165.651 178.424 165.846C177.69 162.721 177.308 159.524 177.286 156.314C177.484 156.105 177.594 155.829 177.593 155.542C177.584 155.159 177.601 154.776 177.643 154.395C177.455 154.669 177.593 155.124 177.174 155.28C176.486 154.034 176.767 152.688 176.549 151.392C176.424 151.148 176.366 150.875 176.38 150.601C176.349 149.978 176.799 149.355 176.33 148.788C176.109 148.755 175.884 148.777 175.674 148.851C175.392 149.336 175.611 149.835 175.58 150.321L175.542 150.726C175.311 151.804 175.086 152.875 174.855 153.947C174.398 153.691 174.636 153.162 174.417 152.813C174.592 153.349 174.298 153.99 174.792 154.445C174.758 156.632 174.387 158.8 173.692 160.874C173.571 160.815 173.471 160.721 173.404 160.605C173.337 160.488 173.307 160.354 173.317 160.22C173.17 160.785 173.246 161.385 173.529 161.896C173.602 162.404 173.585 162.92 173.479 163.422C169.56 172.836 171.717 182.15 173.842 191.457C174.692 195.195 175.555 198.933 176.099 202.671C176.561 205.849 179.699 207.743 179.793 211.013C179.412 212.218 179.399 213.508 179.756 214.72C180.312 217.156 178.205 218.589 177.593 220.551C176.611 223.704 176.092 226.993 175.298 230.208C174.63 232.918 173.967 235.678 171.073 237.03C169.254 236.45 167.353 237.123 165.528 236.675C167.203 237.179 169.035 236.307 170.666 237.21C166.384 237.709 162.059 239.079 157.939 236.531C157.777 235.715 156.977 235.229 156.833 234.394C156.527 232.905 157.327 231.902 158.289 230.912C159.046 230.133 160.115 229.572 160.333 228.351C162.746 223.367 162.371 221.436 158.364 217.76C157.9 217.368 157.576 216.837 157.439 216.246C156.814 210.322 154.595 204.634 154.851 198.584C154.991 198.454 155.089 198.285 155.133 198.099C155.22 197.725 155.133 197.332 155.239 196.958C155.008 197.32 155.251 197.843 154.795 198.099Z" fill="#323232"/>
<path d="M96.2162 229.697C97.3852 234.943 96.56 240.12 95.6661 245.272C95.6089 245.664 95.4659 246.038 95.2473 246.368C93.5345 248.686 86.4958 249.888 83.7016 248.368C83.5891 246.699 84.1516 245.048 83.8266 243.384C84.6142 239.26 87.1272 235.696 87.6397 231.441C87.7773 230.258 88.0336 229.043 88.1398 227.828C88.8024 226.364 88.3024 224.869 88.4211 223.741C88.4848 223.953 88.4811 224.179 88.4106 224.389C88.3401 224.599 88.2062 224.782 88.0273 224.912C84.9893 214.292 81.9554 203.67 78.9258 193.046C78.1273 190.159 76.8853 187.412 75.2439 184.903C71.2119 178.773 69.3929 171.727 67.1612 164.612C62.4854 167.653 57.2095 167.653 51.8961 167.422C50.1333 167.347 48.3518 167.422 46.614 167.16C42.9759 166.643 40.713 167.746 39.2627 171.416C38.0125 174.531 35.7996 177.259 34.0056 180.137C33.0867 180.474 33.7618 181.259 33.5555 181.795C33.5055 181.919 33.5555 182.387 33.7243 181.795C33.8088 181.739 33.8882 181.677 33.9618 181.608C34.3682 182.43 34.5391 183.349 34.4557 184.262C34.3369 184.408 34.2554 184.582 34.2181 184.766C34.2116 185.146 34.1803 185.525 34.1243 185.9C34.3431 185.551 34.1243 185.04 34.5494 184.779C35.0873 185.98 35.2799 187.306 35.1058 188.61C34.6194 190.236 34.6194 191.968 35.1058 193.594C34.3744 198.89 32.4053 203.843 30.905 208.926C29.9236 212.278 28.7547 215.555 28.8109 219.125C28.7544 220.863 29.1667 222.584 30.0049 224.109C30.2424 225.753 30.0049 227.404 30.1237 229.049C29.436 231.896 26.3355 233.765 26.8606 237.148C26.9169 237.509 26.3855 237.771 25.9229 237.703C25.2978 237.597 25.1978 237.08 25.0978 236.569C24.8603 235.292 25.2041 233.366 24.0664 232.943C22.5849 232.395 20.8471 233.329 19.3093 233.94C15.9775 235.273 13.4646 238.301 9.63891 238.637C8.82002 238.712 8.02613 239.023 7.21349 239.111C5.96328 239.248 4.25049 240.3 3.59412 238.749C2.93776 237.198 3.81916 235.547 5.22565 234.426C8.66374 231.666 12.3769 229.161 15.1398 225.591C17.2965 222.813 19.3968 220.028 20.0782 216.471C20.322 216.552 20.3845 216.683 20.272 216.869C20.4158 216.926 20.5158 216.869 20.5033 216.645C20.468 216.178 20.5017 215.707 20.6033 215.25C20.6969 214.929 20.7535 214.599 20.7721 214.265C21.8722 205.612 20.9908 196.896 21.7285 188.236C21.9473 185.645 21.5472 183.066 21.3222 180.505C21.1601 178.455 21.2145 176.394 21.4847 174.356C22.1098 172.057 22.5911 169.74 23.285 167.503C23.9789 165.267 24.9603 163.229 21.6722 162.239C21.4624 162.197 21.2681 162.099 21.1111 161.954C20.954 161.809 20.8404 161.624 20.7827 161.419C20.7251 161.213 20.7257 160.996 20.7845 160.791C20.8433 160.586 20.958 160.401 21.1159 160.258C25.1978 155.448 25.1353 149.044 27.4545 143.586C28.6847 140.407 29.7509 137.167 30.6487 133.88C30.8925 133.07 31.4364 131.674 30.2174 131.475C26.8731 130.927 27.8858 128.721 28.1483 126.778C28.2796 125.768 28.1108 124.684 28.7734 123.794C28.8866 123.853 28.981 123.943 29.0461 124.053C29.1112 124.163 29.1445 124.289 29.1422 124.417C29.2791 123.853 29.2058 123.26 28.936 122.747C29.0172 118.542 28.7609 114.336 29.3548 110.137C30.0174 105.415 28.7297 100.967 26.9231 96.6682C26.2355 95.0421 25.5666 93.4473 25.7417 91.6406C26.3668 90.8307 25.9104 89.8775 26.2042 88.6626C25.8604 89.7093 26.373 90.5316 25.6854 91.1546L23.9539 82.9248C24.5102 82.0962 24.0414 81.143 24.2852 80.2771C24.0664 80.1462 23.9851 80.1525 24.0476 80.2771C24.2058 80.5284 24.2688 80.8278 24.2252 81.1213C24.1817 81.4148 24.0345 81.6832 23.8101 81.8782C23.0412 79.1121 23.0412 76.1279 21.5159 73.5798C21.1096 71.7607 19.7719 70.795 18.2216 70.035L9.68892 59.8739C9.75768 58.8459 9.16383 58.3787 8.25117 58.1855C5.20065 55.5129 1.23747 53.4757 0.837402 48.7097C1.31288 47.2985 1.33908 45.7754 0.912415 44.3488C0.953256 42.4801 1.59532 40.674 2.74398 39.1966C8.66374 31.8016 13.8646 23.8583 20.3407 16.887C22.7974 14.2455 24.3914 9.92186 29.4235 11.8033C29.8786 11.7627 30.3069 11.5712 30.6401 11.2595C30.9732 10.9478 31.1919 10.5339 31.2614 10.0838C33.468 7.9345 34.3869 5.0251 35.7559 2.4085C36.1015 1.68189 36.5499 1.00842 37.0874 0.408678C37.3191 0.195762 37.6205 0.073966 37.9355 0.0659443C38.2506 0.0579225 38.5578 0.164221 38.8001 0.365068C39.3502 0.832317 38.7189 1.17497 38.5313 1.61106C37.6562 3.62335 36.581 5.58579 36.4247 8.46405L41.3193 3.80402C41.6696 3.86106 41.9933 4.02554 42.2454 4.27455C42.4975 4.52356 42.6654 4.84472 42.7258 5.19331L39.8378 9.55429C43.4759 8.9313 45.1012 5.54218 48.1267 4.50178C48.8706 4.35849 49.7895 3.63581 50.0771 5.06871C47.6829 7.30527 45.4513 9.71627 42.2695 11.7784C45.8701 12.6942 48.2143 8.91261 51.4023 10.4203C51.2335 12.0214 49.877 12.3516 48.8581 12.9123C45.8638 14.5383 42.8071 16.0584 39.7878 17.6408C39.2502 17.9212 38.5376 18.1953 38.6314 18.8868C38.6596 19.0407 38.7187 19.1873 38.805 19.3179C38.8913 19.4485 39.0031 19.5605 39.1338 19.6471C39.2645 19.7337 39.4113 19.7933 39.5656 19.8221C39.7198 19.851 39.8783 19.8486 40.0316 19.8151C44.6324 18.6065 45.9201 22.6684 48.3518 24.9174C48.5456 25.0981 48.9769 25.0981 48.7331 25.4968C46.8953 28.7177 49.1144 30.811 51.3773 31.7642C54.8654 33.2345 54.234 35.9507 54.2215 38.4427C54.2215 39.6887 53.834 40.3616 55.3155 41.0531C56.9907 41.8256 56.5657 43.894 56.722 45.3767C56.822 46.5293 55.3467 46.7037 54.3591 46.9653C52.8588 47.3578 51.2835 47.5883 50.1396 48.7596C49.652 48.9465 49.7645 49.3826 49.7833 49.7252C49.7833 49.9433 49.7833 50.1177 49.6332 50.2486C50.0583 50.3981 49.852 49.8187 50.1458 49.8124C51.0772 51.1768 50.7209 53.0333 51.8899 54.3043C52.44 54.5971 52.8963 54.9273 52.8838 55.6499C52.6711 57.0847 52.7262 58.5463 53.0463 59.9611C53.1651 61.5809 52.4212 62.9702 51.7961 64.3719C50.2083 67.842 50.2021 67.842 53.1401 70.8947C53.7652 69.4057 53.6089 67.8545 53.9777 66.434C54.4653 64.6336 54.1403 62.7833 54.2965 60.9704C55.0654 59.5811 53.4651 57.7868 55.0404 56.5346C57.3783 59.1637 60.085 58.7649 63.0605 57.7806C64.8733 57.1576 66.8799 57.1202 68.799 56.8149C69.1928 56.9458 68.6427 56.8586 69.0241 57.0143C69.4054 57.1701 69.9805 57.0579 70.4368 57.195C70.068 56.9956 69.5366 57.195 69.2741 56.7464C73.5186 55.164 78.2444 55.2512 82.5201 53.1019C80.7636 50.0616 77.9068 48.012 76.4003 45.0029C76.4691 43.9687 75.9127 43.4828 74.9501 43.352C71.1244 43.4205 68.3989 45.6384 65.6735 48.3359C65.3047 45.8066 66.3924 44.3051 68.0176 43.1028C68.7678 42.5483 69.893 42.1246 69.7054 41.1154C69.5617 40.2868 68.3552 40.4114 67.6551 40.0563C64.5295 38.4739 60.8977 38.1125 58.1284 35.7888C57.5033 35.2779 56.4844 34.8792 57.1783 33.9198C57.6534 33.2656 58.3347 33.683 59.0536 34.1191C60.1806 34.6971 61.3614 35.1645 62.5792 35.5146C63.3106 35.4461 63.7044 35.1844 63.2043 34.4182C61.5478 33.222 59.8975 32.0134 58.2035 30.8297C57.5784 30.3624 56.4969 29.9076 57.1345 29.023C57.5346 28.481 58.666 28.5308 59.4224 29.023C61.1727 30.1506 62.9105 31.2907 64.6358 32.4682C65.1421 32.8108 65.7297 33.4276 66.2298 32.9292C66.7299 32.4308 66.1798 31.7642 65.836 31.1973C64.9421 29.7208 64.0607 28.2256 63.2793 26.6805C63.1841 26.4501 63.1458 26.2003 63.1676 25.952C63.1893 25.7038 63.2705 25.4643 63.4043 25.2539C64.0732 24.6309 64.4608 25.4283 64.8671 25.8083C66.5986 27.4343 67.08 30.1693 69.9055 31.4153C69.6804 29.7706 69.4429 28.4374 69.3491 27.0979C69.3054 26.4438 68.9741 25.4532 69.8617 25.2289C71.0244 24.9174 71.2932 26.5185 71.2744 26.7802C70.9994 30.0385 73.7749 31.5088 75.1689 33.7702C75.944 35.0162 76.8004 35.1035 77.9193 34.1129C79.9009 32.3685 81.8138 32.898 83.339 34.7359C88.7649 41.2213 94.6472 47.3267 99.5355 54.2544C100.786 55.9926 100.073 57.656 99.0604 59.145C96.8976 62.3409 93.6408 63.9358 89.9839 64.6647C81.9276 66.2837 74.2886 69.5275 67.5363 74.1966C66.7924 74.7012 66.2861 75.1373 66.2048 76.0656C65.7985 80.8128 65.2797 85.5476 64.9046 90.2949C64.4858 95.5592 65.7923 100.045 70.6431 103.035C72.1058 103.939 73.2498 105.359 74.5375 106.543C75.1137 107.914 76.2002 109.01 77.5693 109.602C80.8011 113.227 83.064 117.507 85.5956 121.607C86.1207 122.46 86.8083 123.364 85.4331 124.217C84.4767 124.84 84.9893 125.681 85.3519 126.416C89.4776 134.702 89.4713 144.091 92.4531 152.682C92.8344 153.785 92.1843 154.127 91.4341 154.551C89.39 155.797 87.421 157.13 85.3331 158.289C83.6015 159.223 82.9077 160.332 83.0202 162.438C83.439 170.45 83.9829 178.281 89.6463 184.866C91.6967 187.24 92.6656 190.473 93.0594 193.719C92.9205 193.873 92.8332 194.067 92.8094 194.273C92.8094 194.579 92.8094 194.896 92.8094 195.195C92.9907 195.071 92.9969 194.784 93.2532 194.722C94.0533 196.354 93.8783 198.117 93.9408 199.843C94.1096 206.297 94.2346 212.758 94.3721 219.212C94.2345 219.345 94.1407 219.517 94.1033 219.704C94.0918 220.086 94.0584 220.466 94.0033 220.844C94.2221 220.495 94.0033 219.972 94.4347 219.717L96.31 226.034C96.335 227.199 96.0162 228.445 96.2162 229.697Z" fill="#323232"/>
<path d="M52.6337 55.544C52.865 54.8463 51.8898 54.921 51.8898 54.3354C53.8027 53.8432 54.5153 55.0519 55.0154 56.5346C54.8091 57.8304 55.703 59.1263 55.0154 60.4221C54.2715 62.4842 55.1904 64.6834 54.4965 66.7455L53.8714 72.2778C53.6255 72.2422 53.3857 72.173 53.1588 72.0722C49.8832 69.5802 48.6455 66.7767 51.4335 63.0698C52.0586 62.2288 52.1461 60.9641 52.4774 59.8925C52.3274 58.4347 52.6087 56.9894 52.6337 55.544Z" fill="#F7F7F7"/>
<path d="M21.4847 174.356C21.6722 177.353 21.9785 180.356 22.0097 183.352C22.091 190.498 22.266 197.681 21.9347 204.79C21.7722 208.309 21.9347 211.942 20.7845 215.38C20.3399 213.85 20.3226 212.228 20.7345 210.689L20.822 207.294C21.4472 202.709 20.9346 198.105 21.1158 193.513C21.1721 191.987 20.8783 190.436 21.3596 188.934V184.623C20.7345 183.109 21.5409 181.433 20.8158 179.932C20.397 178.007 20.2907 176.1 21.4847 174.356Z" fill="#0D0D0E"/>
<path d="M21.3596 188.947C21.3596 194.296 21.3763 199.65 21.4096 205.008C21.4096 205.818 21.5721 206.683 20.822 207.306C20.9095 201.182 20.572 195.065 21.3596 188.947Z" fill="#323232"/>
<path d="M42.7258 5.21821C42.3993 5.10385 42.1031 4.91717 41.8595 4.67221C41.6159 4.42725 41.4312 4.1304 41.3193 3.80401C41.6271 3.29172 41.9966 2.81888 42.4195 2.39603C43.1822 1.77303 43.826 0.078478 44.9574 1.15004C45.9264 2.04092 44.7012 3.1374 44.026 3.97845C43.616 4.41539 43.1819 4.82928 42.7258 5.21821Z" fill="#101212"/>
<path d="M153.532 6.40814C152.951 8.90014 152.313 11.3921 149.644 12.6381C150.274 10.3546 151.384 8.2308 152.901 6.40814H153.532Z" fill="#EAEAEB"/>
<path d="M143.687 6.25239C142.974 7.2305 144.862 9.23032 142.405 9.52936C142.205 8.62601 141.943 7.72267 141.83 6.80686C141.718 5.89105 140.918 4.75719 142.118 4.41454C143.187 4.11551 143.549 5.29297 143.687 6.25239Z" fill="#0B0B0D"/>
<path d="M160.302 228.389C161.09 229.896 159.527 230.22 158.896 230.881C157.814 231.99 157.114 233.111 157.339 234.687C157.281 234.747 157.21 234.791 157.131 234.818C157.052 234.844 156.968 234.851 156.886 234.838C156.804 234.825 156.726 234.793 156.659 234.744C156.592 234.695 156.538 234.631 156.502 234.556C156.426 233.722 156.264 232.881 156.67 232.064C157.562 230.562 158.809 229.301 160.302 228.389Z" fill="#090A0C"/>
<path d="M83.8267 243.391C84.6643 245.079 84.7956 246.748 83.7016 248.374C82.4264 246.692 83.3703 245.048 83.8267 243.391Z" fill="#323232"/>
<path d="M30.1174 229.074C29.1235 227.448 29.2798 225.797 29.9986 224.134C30.4323 224.881 30.6704 225.725 30.6911 226.589C30.7119 227.452 30.5146 228.307 30.1174 229.074Z" fill="#323232"/>
<path d="M118.682 64.8018C121.183 64.8018 122.389 66.1724 122.546 68.5834L118.682 64.8018Z" fill="#0A0B0D"/>
<path d="M18.2216 70.0225C20.2532 70.3403 21.666 71.2311 21.5159 73.5674L18.2216 70.0225Z" fill="#0A0B0C"/>
<path d="M77.5818 109.546C75.7065 109.408 74.6188 108.437 74.55 106.487C75.8135 107.222 76.8594 108.277 77.5818 109.546Z" fill="#0A0B0D"/>
<path d="M148.063 160.052C148.51 160.808 148.743 161.672 148.735 162.55C148.727 163.428 148.48 164.288 148.019 165.036C147.437 163.354 147.656 161.703 148.063 160.052Z" fill="#323232"/>
<path d="M202.835 134.534C201.672 132.833 202.172 131.419 203.635 130.223C203.642 131.697 203.371 133.16 202.835 134.534Z" fill="#050607"/>
<path d="M170.635 237.248H164.853C166.928 236.625 169.01 236.045 171.042 237.067L170.885 237.26L170.635 237.248Z" fill="#08080A"/>
<path d="M237.722 61.7429L236.715 59.8739C236.602 59.8224 236.502 59.7444 236.425 59.6464C236.348 59.5484 236.296 59.4333 236.274 59.311C236.251 59.1886 236.258 59.0626 236.295 58.9437C236.331 58.8248 236.396 58.7164 236.484 58.6279C237.409 57.9363 237.834 58.7961 238.391 59.2509C238.903 60.3037 238.328 61.0389 237.722 61.7429Z" fill="#060606"/>
<path d="M96.2163 229.697C95.7639 229.176 95.5197 228.507 95.5301 227.817C95.5405 227.128 95.8047 226.467 96.2725 225.959C97.0789 227.211 96.8789 228.457 96.2163 229.697Z" fill="#323232"/>
<path d="M150.444 89.8401C151.607 91.4412 151.282 93.0734 150.551 94.7181C149.888 93.1046 150.394 91.4661 150.444 89.8401Z" fill="#050608"/>
<path d="M152.251 186.374L152.532 182.443C152.876 184.106 153.463 185.776 152.451 187.383C152.382 187.047 152.313 186.71 152.251 186.374Z" fill="#323232"/>
<path d="M176.818 150.676L176.568 151.386L175.567 150.72L175.43 150.825L175.299 150.72C175.167 149.903 174.867 149.069 175.511 148.321L176.599 148.358C177.274 149.075 176.961 149.885 176.818 150.676Z" fill="#9C9D9E"/>
<path d="M35.0996 193.619C34.6421 192.868 34.4002 192.006 34.4002 191.127C34.4002 190.248 34.6421 189.386 35.0996 188.635C35.4775 190.275 35.4775 191.979 35.0996 193.619Z" fill="#323232"/>
<path d="M63.1918 34.3995C63.6294 35.0972 65.4547 34.7857 64.8608 35.9445C64.3795 36.879 63.2855 36.0317 62.5604 35.496L63.1918 34.3995Z" fill="#E6E6E6"/>
<path d="M88.0524 224.919L88.3712 223.536C88.7025 225.006 89.2588 226.476 88.1649 227.834L88.0524 224.919Z" fill="#020204"/>
<path d="M20.7346 210.702L20.7846 215.393C20.5846 215.673 20.3908 215.673 20.1907 215.393C20.0428 213.809 20.228 212.211 20.7346 210.702Z" fill="#323232"/>
<path d="M149.132 175.197C149.2 174.113 149.269 173.023 149.344 171.939C149.882 173.185 150.313 174.431 149.225 175.59L149.063 175.421L149.132 175.197Z" fill="#0A0B0D"/>
<path d="M31.2614 10.0963C31.4052 11.4918 30.7426 12.1086 29.4236 11.8158C29.7982 11.0333 30.4541 10.4196 31.2614 10.0963Z" fill="#0A0B0D"/>
<path d="M33.9618 181.651C33.8618 182.125 33.7556 182.598 33.5118 183.738C33.2492 182.013 33.0429 180.979 33.5118 179.938C33.5118 179.907 33.7118 179.938 33.7931 179.938C33.8801 179.992 33.9581 180.06 34.0243 180.138L33.9618 181.651Z" fill="#323232"/>
<path d="M20.8095 179.944C21.9785 181.396 21.2221 183.059 21.3534 184.636C20.8148 183.134 20.6287 181.529 20.8095 179.944Z" fill="#323232"/>
<path d="M201.709 167.945L201.428 170.032C201.015 168.743 200.59 167.466 201.547 166.294C201.597 166.83 201.653 167.391 201.709 167.945Z" fill="#323232"/>
<path d="M179.724 214.758C179.305 214.228 179.08 213.572 179.087 212.898C179.094 212.223 179.332 211.571 179.762 211.051C180.368 212.29 180.106 213.524 179.724 214.758Z" fill="#020305"/>
<path d="M0.912455 44.3675C1.35245 45.0134 1.58139 45.7792 1.56797 46.5598C1.55454 47.3404 1.29939 48.0979 0.837442 48.7284C0.410781 47.3018 0.436981 45.7787 0.912455 44.3675Z" fill="#323232"/>
<path d="M149.269 151.336C150.3 152.501 149.794 153.785 149.413 155.074L149.175 152.464L149.269 151.336Z" fill="#323232"/>
<path d="M202.241 138.895C201.159 137.967 201.797 136.87 202.078 135.78L202.303 138.378C202.339 138.413 202.366 138.456 202.383 138.504C202.399 138.551 202.405 138.602 202.399 138.652C202.393 138.702 202.375 138.749 202.348 138.792C202.32 138.834 202.284 138.869 202.241 138.895Z" fill="#030407"/>
<path d="M23.8101 81.8657C23.8976 81.1742 23.9913 80.4764 24.1789 79.0062C24.5664 80.8752 24.8415 81.9343 23.9538 82.9062L23.8101 81.8657Z" fill="#050608"/>
<path d="M25.7104 91.1421L25.9354 88.538C26.3855 89.622 26.7543 90.6936 25.7666 91.653C25.724 91.6272 25.6879 91.592 25.6612 91.5501C25.6344 91.5082 25.6176 91.4608 25.6122 91.4114C25.6067 91.362 25.6128 91.3121 25.6298 91.2654C25.6468 91.2187 25.6744 91.1765 25.7104 91.1421Z" fill="#040506"/>
<path d="M178.443 165.84C178.53 165.167 178.618 164.488 178.774 163.248C179.262 164.88 179.462 165.914 178.568 166.874C178.524 166.531 178.487 166.189 178.443 165.84Z" fill="#030506"/>
<path d="M250.286 43.0529C249.661 43.9376 248.986 43.9313 248.342 43.0529C248.459 42.9085 248.608 42.792 248.776 42.712C248.944 42.632 249.128 42.5905 249.314 42.5905C249.501 42.5905 249.685 42.632 249.853 42.712C250.021 42.792 250.169 42.9085 250.286 43.0529Z" fill="#010201"/>
<path d="M74.9252 43.3021C76.3254 43.0031 76.6755 43.3956 76.3754 44.9531C75.9191 44.4048 75.4315 43.8566 74.9252 43.3021Z" fill="#08090B"/>
<path d="M50.1459 49.8436L49.9208 51.6005C49.6873 51.1589 49.5434 50.6757 49.4973 50.1786C49.4512 49.6816 49.5037 49.1803 49.652 48.7035C49.652 48.6599 49.8333 48.6163 49.9146 48.635C49.9959 48.6537 50.0834 48.7347 50.1709 48.7907L50.1459 49.8436Z" fill="#060708"/>
<path d="M150.475 125.831C151.463 126.765 151.101 127.837 150.644 128.946L150.419 126.335C150.381 126.303 150.351 126.262 150.332 126.215C150.313 126.168 150.306 126.118 150.312 126.068C150.317 126.018 150.335 125.97 150.364 125.929C150.392 125.888 150.431 125.854 150.475 125.831Z" fill="#323232"/>
<path d="M8.25122 58.1918C9.65771 57.9675 9.98277 58.3413 9.68897 59.8801L8.25122 58.1918Z" fill="#0A0B0B"/>
<path d="M50.077 5.08118C49.5645 4.4208 48.8268 4.62016 48.1267 4.51425C48.4007 4.21899 48.7709 4.03006 49.1714 3.98102C49.572 3.93197 49.977 4.02599 50.3146 4.24636C50.5896 4.42703 50.6896 4.95035 50.077 5.08118Z" fill="#1A1B1D"/>
<path d="M210.973 59.8739C212.024 59.0017 213.061 58.9705 214.099 59.9112C213.089 60.2887 211.974 60.2754 210.973 59.8739Z" fill="#323232"/>
<path d="M202.278 94.0204L202.034 96.3629C201.459 95.1169 201.409 94.2696 202.159 93.5096C202.241 93.5632 202.299 93.6462 202.321 93.7413C202.344 93.8364 202.328 93.9364 202.278 94.0204Z" fill="#323232"/>
<path d="M204.86 120.305C204.116 119.439 205.085 119.682 205.372 119.57C205.91 119.339 206.498 119.121 206.623 120.055C206.073 120.535 205.466 120.404 204.86 120.305Z" fill="#060708"/>
<path d="M28.961 122.734C29.7049 123.445 29.5861 124.279 29.3236 125.226C28.6359 124.878 29.036 124.211 28.7985 123.775L28.961 122.734Z" fill="#323232"/>
<path d="M34.5494 184.822C34.4682 185.483 34.3931 186.137 34.2744 187.152C33.7305 185.906 33.693 185.053 34.4556 184.305C34.4963 184.333 34.531 184.368 34.5578 184.409C34.5846 184.45 34.6029 184.496 34.6117 184.544C34.6204 184.592 34.6194 184.642 34.6087 184.69C34.598 184.737 34.5779 184.783 34.5494 184.822Z" fill="#323232"/>
<path d="M20.1908 215.399H20.7846V217.841C19.8595 217.598 20.347 216.869 20.0782 216.477L20.1908 215.399Z" fill="#040508"/>
<path d="M177.193 155.274C177.286 154.794 177.374 154.32 177.561 153.361C177.974 154.719 178.186 155.566 177.305 156.308L177.193 155.274Z" fill="#323232"/>
<path d="M94.4159 219.636L94.1283 221.966C93.597 220.72 93.5407 219.866 94.3534 219.131C94.3919 219.159 94.4243 219.195 94.4485 219.236C94.4727 219.277 94.4883 219.323 94.4941 219.37C94.5 219.417 94.4961 219.465 94.4826 219.511C94.4691 219.557 94.4464 219.599 94.4159 219.636Z" fill="#323232"/>
<path d="M69.2991 56.7215L71.737 57.0081C70.4305 57.5439 69.5804 57.6311 68.824 56.79C68.848 56.7512 68.8802 56.718 68.9185 56.693C68.9568 56.6679 69.0001 56.6515 69.0454 56.645C69.0907 56.6384 69.137 56.6419 69.1808 56.6551C69.2246 56.6684 69.265 56.691 69.2991 56.7215Z" fill="#030405"/>
<path d="M209.148 193.52C209.079 194.18 209.01 194.847 208.904 195.887C208.317 194.604 208.279 193.775 209.042 193.015C209.082 193.041 209.117 193.074 209.145 193.114C209.172 193.153 209.191 193.198 209.201 193.245C209.211 193.292 209.211 193.34 209.202 193.388C209.193 193.435 209.175 193.48 209.148 193.52Z" fill="#323232"/>
<path d="M93.2344 194.641C93.1469 195.121 93.0532 195.594 92.8719 196.51C92.4406 195.202 92.2468 194.373 93.0719 193.613C93.1219 193.974 93.1782 194.305 93.2344 194.641Z" fill="#323232"/>
<path d="M173.498 161.896C172.654 161.198 172.998 160.332 173.354 159.435C173.454 159.915 173.561 160.395 173.661 160.874C173.604 161.211 173.554 161.553 173.498 161.896Z" fill="#323232"/>
<path d="M148.606 156.308C149.532 156.931 149.163 157.84 149.188 158.8C148.244 158.177 148.856 157.336 148.531 156.738C148.505 156.706 148.486 156.668 148.475 156.628C148.464 156.588 148.462 156.546 148.469 156.505C148.476 156.465 148.492 156.426 148.516 156.392C148.54 156.357 148.571 156.329 148.606 156.308Z" fill="#050608"/>
<path d="M156.67 232.064L156.783 234.693C156.834 234.758 156.871 234.834 156.89 234.914C156.91 234.994 156.911 235.078 156.895 235.159C156.879 235.24 156.846 235.317 156.797 235.384C156.749 235.451 156.686 235.506 156.614 235.547C155.926 234.376 155.564 233.211 156.67 232.064Z" fill="#323232"/>
<path d="M156.614 235.559L156.783 234.706H157.339C157.339 235.404 158.764 235.659 157.908 236.575C157.614 236.556 157.333 236.449 157.102 236.268C156.871 236.087 156.701 235.84 156.614 235.559Z" fill="#050507"/>
<path d="M174.798 154.439C173.867 153.722 174.248 152.838 174.611 151.947C174.692 152.607 174.78 153.274 174.861 153.934C174.893 153.97 174.918 154.012 174.932 154.058C174.947 154.104 174.951 154.153 174.945 154.201C174.939 154.249 174.923 154.295 174.898 154.336C174.873 154.377 174.839 154.412 174.798 154.439Z" fill="#323232"/>
<path d="M154.795 198.099C154.864 197.432 154.933 196.765 155.026 195.831C155.651 197.002 155.651 197.843 154.845 198.603C154.807 198.575 154.775 198.539 154.751 198.497C154.727 198.455 154.713 198.409 154.708 198.362C154.703 198.314 154.709 198.266 154.724 198.221C154.739 198.176 154.763 198.134 154.795 198.099Z" fill="#050608"/>
<path d="M141.143 45.5449L142.349 44.9219C143.206 44.5311 144.139 44.3353 145.081 44.3488C146.012 44.5668 146.912 45.4079 146.256 46.0371C144.212 48.0058 145.287 49.6941 146.294 51.5008C145.443 53.1455 145.9 54.8587 145.925 56.5408C146.112 56.9582 146.55 56.41 146.175 56.5907C146.012 56.6717 145.925 56.5907 145.9 56.4412C145.798 55.2103 145.777 53.9741 145.837 52.7405C147.769 51.9431 147.294 53.6314 147.437 54.4164C147.738 56.0674 147.437 57.9488 149.419 58.821C149.532 58.7586 149.659 58.7224 149.788 58.7151C150.369 59.2384 150.194 59.8303 149.944 60.4346C150.973 63.5566 151.333 66.8591 151.001 70.1284C150.894 71.1688 151.676 72.7699 150.375 73.1188C149.407 73.3805 148.5 72.0784 147.988 71.038C147.373 69.8515 146.644 68.7269 145.812 67.68C143.668 65.0074 142.43 62.0232 142.749 58.5282C142.643 56.3228 143.143 54.0862 142.368 51.9182C141.724 50.7053 141.259 49.4066 140.986 48.0618C140.838 47.4851 140.754 46.8938 140.736 46.2987C140.792 46.0121 140.933 45.7491 141.143 45.5449Z" fill="#993429"/>
<path d="M143.574 58.9705C143.124 62.1478 144.312 64.7893 146.425 67.0321C147.537 68.2096 148.413 69.3684 148 71.0816C146.387 69.9976 144.875 68.7641 142.999 68.1411C142.342 68.0438 141.735 67.7358 141.269 67.2637C140.803 66.7915 140.504 66.181 140.418 65.5245C139.03 63.5025 137.855 61.3439 136.911 59.0827C136.379 58.8086 136.404 58.5282 136.911 58.2354L139.311 53.077C139.405 51.6254 138.955 50.1613 139.449 48.716C139.961 47.9995 140.142 46.6352 141.543 47.632C141.692 48.9144 142.118 50.1493 142.793 51.2516C144.118 53.7187 142.668 56.4661 143.574 58.9705Z" fill="#FBFBFA"/>
<path d="M149.419 58.8646C149.181 59.1761 149.356 60.1106 148.513 59.5375C147.854 59.1224 147.321 58.5369 146.969 57.8435C146.618 57.1502 146.462 56.3748 146.519 55.6001C146.481 54.4766 146.385 53.3557 146.231 52.2421C145.687 51.9992 145.825 51.6191 146.018 51.2204C145.468 50.0305 143.806 50.1613 143.324 48.7284C143.556 47.2955 146.656 47.3205 145.656 44.9281C145.131 44.5294 144.081 44.8783 144.056 43.7943L149.15 41.1528C148.144 47.227 148.65 53.0209 149.419 58.8646Z" fill="#F8F6F6"/>
<path d="M141.143 45.5449L141.086 46.2863C140.374 46.9903 140.13 47.9808 139.58 48.7783C139.516 49.1333 139.315 49.4494 139.021 49.6599C138.727 49.8703 138.363 49.9585 138.005 49.9059C134.767 49.2829 132.766 46.3797 129.534 45.7692C129.909 44.4547 130.853 43.9625 131.535 43.2772C132.91 41.8754 134.098 41.0406 136.017 42.9221C137.336 44.2055 139.411 44.7101 141.143 45.5449Z" fill="#F8F8F8"/>
<path d="M143.499 30.8608C143.618 31.9947 142.874 32.2875 142.249 32.6488C141.624 33.0102 141.361 32.4744 141.099 32.0258C139.349 29.0915 137.617 26.151 135.823 23.2478C135.754 23.178 135.703 23.093 135.674 22.9999C135.644 22.9067 135.637 22.808 135.653 22.7115C135.669 22.6151 135.707 22.5238 135.765 22.4448C135.823 22.3659 135.898 22.3016 135.985 22.2572C136.611 21.7214 136.861 22.3071 137.186 22.6622C139.061 24.6558 139.649 27.6462 142.462 28.8921C143.062 29.1725 143.224 30.3064 143.499 30.8608Z" fill="#EFEFEF"/>
<path d="M236.484 58.6777L236.715 59.9237C236.634 60.3411 236.547 60.7585 236.459 61.1697C234.815 61.7927 234.09 61.3815 234.584 59.5561C234.659 58.2478 234.727 56.9458 234.796 55.6375C235.284 55.5503 235.646 55.5627 235.29 56.2044C235.146 57.276 235.359 58.1918 236.484 58.6777Z" fill="#E1E2E4"/>
<path d="M138.005 49.9059L139.255 48.7035C139.292 48.6443 139.343 48.5955 139.405 48.5616C139.466 48.5277 139.535 48.5099 139.605 48.5099C139.675 48.5099 139.744 48.5277 139.805 48.5616C139.866 48.5955 139.918 48.6443 139.955 48.7035C139.655 50.1489 140.274 51.7313 139.267 53.0645C138.255 52.2733 138.799 50.8279 138.005 49.9059Z" fill="#060809"/>
<path d="M150.113 39.1779C150.207 37.7761 150.338 36.4117 151.988 35.5084C152.057 37.2902 151.188 38.3057 150.113 39.1779Z" fill="#DDDEDE"/>
<path d="M235.296 56.1795L234.802 55.6126C234.734 54.1236 234.377 52.6035 235.296 51.2516C236.115 51.9307 235.259 52.9399 235.784 53.675C235.828 54.5286 236.028 55.4444 235.296 56.1795Z" fill="#ABACAE"/>
<path d="M140.393 65.5245L142.974 68.1411C140.955 68.4089 140.149 67.4807 140.393 65.5245Z" fill="#090B0D"/>
<path d="M153.001 30.6864C151.813 29.5837 152.632 28.2629 152.807 27.0107L152.995 30.6989L153.001 30.6864Z" fill="#020305"/>
<path d="M234.59 59.5312C234.59 60.7772 235.284 61.2382 236.465 61.1448C236.395 61.3066 236.289 61.4505 236.156 61.5659C236.022 61.6814 235.864 61.7652 235.694 61.8113C235.523 61.8574 235.344 61.8646 235.17 61.8322C234.997 61.7999 234.832 61.7289 234.69 61.6245C233.765 61.1199 234.265 60.2539 234.59 59.5312Z" fill="#DCDCDD"/>
<path d="M144.056 43.7881C144.262 44.6229 145.237 44.3799 145.656 44.9219L142.349 44.9655L144.056 43.7881Z" fill="#96352B"/>
<path d="M150.175 17.3044C150.494 18.3012 150.569 18.8931 150.213 19.5223C149.657 18.8931 149.813 18.2638 150.175 17.3044Z" fill="#040506"/>
<path d="M149.938 60.4969L149.788 58.7774C149.81 58.5867 149.865 58.4012 149.95 58.2292C150.175 57.9364 150.432 58.0049 150.444 58.36C150.482 59.0889 150.682 59.905 149.938 60.4969Z" fill="#050609"/>
<path d="M175.492 148.34L175.28 150.738C174.723 149.866 174.317 149.025 175.492 148.34Z" fill="#050507"/>
<path d="M176.818 150.676L176.593 148.358C177.861 149.019 177.361 149.841 176.818 150.676Z" fill="#050608"/>
<path d="M136.867 58.2354V59.0827C135.667 59.7057 136.242 58.6154 136.154 58.279C136.067 57.9426 135.929 57.4691 136.511 57.4753C136.648 57.4815 136.754 57.9675 136.867 58.2354Z" fill="#323232"/>
<path d="M235.353 50.7345C235.515 50.3296 235.89 49.9869 236.196 50.342C236.325 50.4902 236.423 50.6624 236.485 50.8487C236.546 51.035 236.569 51.2316 236.554 51.427C236.538 51.6225 236.483 51.8128 236.393 51.987C236.303 52.1612 236.179 52.3157 236.028 52.4415C235.24 52.0926 235.909 51.1519 235.353 50.7345Z" fill="#323232"/>
<path d="M235.353 50.7345C236.34 51.0024 235.784 51.8808 236.028 52.4415L235.784 53.6439C235.059 52.9461 235.421 52.0366 235.296 51.2204C235.334 51.0612 235.353 50.8981 235.353 50.7345Z" fill="#C4C5C6"/>
<path d="M36.1309 57.5314C38.9502 59.8427 41.5944 62.4344 44.6449 64.3844C48.3955 66.8078 48.9644 69.9104 47.5766 74.6638C45.0762 67.5368 39.8816 63.2069 35.2745 58.4659L36.1309 57.5314Z" fill="#F6F6F7"/>
<path d="M23.4163 51.1083C22.5349 50.2423 21.6347 49.4013 20.7783 48.5104C18.4717 46.0931 18.4967 43.8753 20.9471 41.6574C21.3347 41.3023 21.4597 42.0125 21.5347 42.3676C22.0098 42.8598 22.6599 43.1837 22.9224 43.8628C23.2039 45.9371 23.6619 47.9837 24.2914 49.9807C24.2289 50.5289 24.3539 51.2329 23.4163 51.1083Z" fill="#E7E7E7"/>
<path d="M23.4163 51.1083C23.9664 50.7906 23.9414 50.2299 24.0101 49.7066C23.8476 48.878 23.7726 48.0681 24.5352 47.4451C24.9611 48.1242 25.3391 48.832 25.6666 49.5633C26.0542 50.6348 27.0981 52.0553 25.8229 52.8091C24.5477 53.5629 24.2289 51.7126 23.4163 51.1083Z" fill="#A1A2A4"/>
<path d="M24.5352 47.445C24.6067 48.2374 24.4228 49.0318 24.0101 49.7128C22.6474 47.8998 22.0223 45.9748 22.7599 43.7008C22.9599 43.4703 23.1537 43.4765 23.3475 43.7008C24.0396 44.8356 24.447 46.12 24.5352 47.445Z" fill="#979899"/>
<path d="M23.335 43.7133H22.7474C21.8973 43.6635 21.2597 43.4267 21.5347 42.3676L22.2348 40.0251C22.8412 41.4144 23.36 42.4673 23.335 43.7133Z" fill="#8A8B8D"/>
<path d="M52.6337 55.544C52.9355 56.2355 53.0808 56.9847 53.0592 57.7384C53.0376 58.4921 52.8496 59.2319 52.5087 59.905C51.6961 58.4161 51.5398 56.9645 52.6337 55.544Z" fill="#040406"/>
<path d="M54.5153 66.7268C54.5466 64.6086 54.134 62.4531 55.0342 60.4034C54.9216 62.5341 55.6343 64.7146 54.5153 66.7268Z" fill="#242527"/>
<path d="M28.0983 216.664V220.956H27.7983V216.664H28.0983Z" fill="#08090B"/>
<path d="M143.574 58.9705C142.743 56.4785 143.406 53.7934 142.774 51.264C144.624 53.6439 143.193 56.41 143.574 58.9705Z" fill="#96352B"/>
<path d="M146.019 51.2204C146.094 51.5631 146.162 51.9057 146.231 52.2421C146.144 53.7581 146.054 55.272 145.962 56.7838C145.562 54.8899 145.075 53.0209 146.019 51.2204Z" fill="#90271D"/>
<path d="M139.98 48.716H139.311C139.936 47.9061 139.605 46.4233 141.118 46.2987C141.261 46.7473 141.411 47.1959 141.555 47.6444C140.499 47.2706 140.618 48.5353 139.98 48.716Z" fill="#555658"/>
</g>
<defs>
<clipPath id="clip0">
<rect width="256" height="249" fill="white" transform="translate(0.537354 0.06604)"/>
</clipPath>
</defs>
</svg>
