<svg width="328" height="379" viewBox="0 0 328 379" fill="none" xmlns="http://www.w3.org/2000/svg">
<path d="M42.0581 112.91C56.4433 139.913 68.7236 163.794 82.5782 186.813C91.0101 200.877 100.091 214.456 113.501 224.434C121.447 230.35 130.419 234.452 139.219 238.805C146.06 242.049 151.72 247.344 155.413 253.953C159.413 261.19 162.99 268.672 166.863 275.967C168.096 278.271 167.253 279.226 165.212 280.268C157.733 284.111 150.423 288.268 142.902 291.995C139.115 293.872 138.244 295.79 140.379 299.727C154.14 325.121 167.778 350.578 181.29 376.098C182.893 379.094 184.578 379.862 187.399 377.84C188.45 377.09 189.704 376.607 190.811 375.925C204.626 366.658 219.892 362.266 236.514 360.37C258.392 357.866 278.119 348.716 296.457 336.585C306.965 329.65 316.565 321.739 324.52 311.822C328.137 307.299 328.125 305.448 324.217 300.988C317.799 293.681 309.474 288.996 301.28 284.132C291.128 278.082 280.875 272.214 272.168 264.008C258.74 251.372 252.741 235.631 252.305 217.547C252.1 204.229 253.698 190.944 257.055 178.055C257.557 175.805 258.532 173.689 259.916 171.846C261.301 170.004 263.062 168.477 265.082 167.369C269.091 165.056 272.932 162.429 276.991 160.208C279.91 158.647 282.015 156.671 281.805 153.177C281.721 151.565 281.176 150.01 280.236 148.697C279.296 147.384 277.999 146.369 276.499 145.77C271.186 143.465 265.77 141.412 260.384 139.284C224.143 124.949 188.512 109.242 154.172 90.6106C137.376 81.5049 123.717 68.992 111.877 54.1334C103.044 43.0505 94.1183 32.017 83.8909 22.2431C76.9783 15.6557 69.5798 9.67416 60.7497 5.63403C44.6683 -1.72971 28.7869 -0.703686 12.9125 6.09829C10.917 6.94837 8.83736 7.715 6.88028 8.54453C1.2984 10.9277 -0.701844 14.5763 0.308934 20.5662C2.48896 33.4889 8.51889 44.9647 14.035 56.6066C23.5567 76.6972 33.5044 96.55 42.0581 112.91Z" fill="#323232"/>
</svg>
