<svg width="81" height="113" viewBox="0 0 81 113" fill="none" xmlns="http://www.w3.org/2000/svg">
<path d="M75.8607 14.7939H53.9074V3.08143C53.9074 1.37337 52.4441 0.15332 50.7366 0.15332H30.0028C28.2953 0.15332 27.0757 1.61738 27.0757 3.08143V14.7939H5.12243C2.19533 14.7939 0 17.234 0 19.9181V107.029C0 109.957 2.19533 112.153 5.12243 112.153H75.8607C78.788 112.153 80.9831 109.957 80.9831 107.029V19.9181C81.2272 17.234 78.788 14.7939 75.8607 14.7939ZM20.7336 23.3342C20.7336 21.6261 22.1972 20.4061 23.9047 20.4061H27.3196V22.8462C27.3196 24.5542 28.5392 25.7743 30.2467 25.7743H50.9803C52.6878 25.7743 54.1514 24.5542 54.1514 22.8462V20.1621H57.5663C59.274 20.1621 60.7374 21.3821 60.7374 23.0902V27.7264C60.7374 29.4344 59.274 30.6545 57.5663 30.6545H23.6607C21.9533 30.6545 20.4897 29.1904 20.4897 27.7264L20.7336 23.3342ZM69.031 103.613H12.1963C10.2449 103.613 8.53738 101.905 8.53738 99.953C8.53738 98.001 10.2449 96.2929 12.1963 96.2929H69.0308C70.982 96.2929 72.6897 98.001 72.6897 99.953C72.6899 102.149 70.9822 103.613 69.031 103.613ZM72.9336 77.26C72.9336 80.1883 70.4944 82.6284 67.8114 82.6284H56.5908V74.5761C56.5908 68.4759 51.4684 63.5957 45.3703 63.5957H35.6133C29.5151 63.5957 24.6366 68.4759 24.6366 74.5761V82.6284H13.1721C10.245 82.6284 8.04972 80.1883 8.04972 77.26V44.319C8.04972 41.3909 10.245 39.1948 13.1721 39.1948H67.5674C70.4945 39.1948 72.6899 41.6349 72.6899 44.319L72.9336 77.26Z" fill="#323232"/>
<path d="M40.4916 61.6437C45.8803 61.6437 50.2486 57.2738 50.2486 51.8833C50.2486 46.4928 45.8803 42.1229 40.4916 42.1229C35.103 42.1229 30.7346 46.4928 30.7346 51.8833C30.7346 57.2738 35.103 61.6437 40.4916 61.6437Z" fill="#323232"/>
</svg>
