<svg width="150" height="150" viewBox="0 0 150 150" fill="none" xmlns="http://www.w3.org/2000/svg">
<path d="M145.329 55.5507C139.867 50.9587 131.51 51.5057 126.768 57.16L123.918 60.5315L144.117 77.4794L146.838 74.1202C151.518 68.5538 150.926 60.2406 145.329 55.5507Z" fill="#323232"/>
<path d="M88.2823 102.695L86.7791 104.474C85.4745 106.036 84.5346 107.903 84.0627 109.882L79.9772 126.979C79.5911 128.597 80.1533 130.296 81.4277 131.365C82.6681 132.407 84.4178 132.71 85.9983 132.035L102.13 125.039C103.997 124.228 105.671 122.979 106.975 121.43L108.484 119.645L88.2823 102.695Z" fill="#323232"/>
<path d="M118.247 67.2413L93.9536 95.9857L114.154 112.936L138.446 84.1893L118.247 67.2413Z" fill="#323232"/>
<path d="M110.151 19.4835L93.457 3.6219C91.8788 2.12571 89.9373 1.24446 87.8909 0.671997V26.3671H113.98C113.435 23.7568 112.105 21.3386 110.151 19.4835Z" fill="#323232"/>
<path d="M75.5139 107.839C76.2993 104.552 77.8655 101.44 80.037 98.8397L114.258 58.3474V35.1562H83.4961C81.0671 35.1562 79.1016 33.1907 79.1016 30.7617V0H13.1836C5.91387 0 0 5.91387 0 13.1836V136.816C0 144.086 5.91387 150 13.1836 150H101.074C108.344 150 114.258 144.086 114.258 136.816V126.428L113.687 127.103C111.529 129.674 108.743 131.747 105.64 133.099L89.4958 140.099C84.9454 142.063 79.6781 141.367 75.7802 138.103C71.9306 134.871 70.2612 129.829 71.4284 124.937L75.5139 107.839ZM21.9727 26.3672H65.918C68.347 26.3672 70.3125 28.3327 70.3125 30.7617C70.3125 33.1907 68.347 35.1562 65.918 35.1562H21.9727C19.5437 35.1562 17.5781 33.1907 17.5781 30.7617C17.5781 28.3327 19.5437 26.3672 21.9727 26.3672ZM21.9727 53.0273H92.2852C94.7142 53.0273 96.6797 54.9929 96.6797 57.4219C96.6797 59.8509 94.7142 61.8164 92.2852 61.8164H21.9727C19.5437 61.8164 17.5781 59.8509 17.5781 57.4219C17.5781 54.9929 19.5437 53.0273 21.9727 53.0273ZM57.1289 114.551H21.9727C19.5437 114.551 17.5781 112.585 17.5781 110.156C17.5781 107.727 19.5437 105.762 21.9727 105.762H57.1289C59.5579 105.762 61.5234 107.727 61.5234 110.156C61.5234 112.585 59.5579 114.551 57.1289 114.551ZM21.9727 88.1836C19.5437 88.1836 17.5781 86.2181 17.5781 83.7891C17.5781 81.3601 19.5437 79.3945 21.9727 79.3945H74.707C77.136 79.3945 79.1016 81.3601 79.1016 83.7891C79.1016 86.2181 77.136 88.1836 74.707 88.1836H21.9727Z" fill="#323232"/>
</svg>
