<svg width="150" height="150" viewBox="0 0 150 150" fill="none" xmlns="http://www.w3.org/2000/svg">
<path d="M139.062 0H10.9375C4.90625 0 0 4.90625 0 10.9375V26.5625C0 32.5938 4.90625 37.5 10.9375 37.5H139.062C145.094 37.5 150 32.5938 150 26.5625V10.9375C150 4.90625 145.094 0 139.062 0Z" fill="#323232"/>
<path d="M4.6875 71.875H95.3125C97.9 71.875 100 69.775 100 67.1875C100 64.6 97.9 62.5 95.3125 62.5H4.6875C2.1 62.5 0 64.6 0 67.1875C0 69.775 2.1 71.875 4.6875 71.875Z" fill="#323232"/>
<path d="M4.6875 90.625H95.3125C97.9 90.625 100 88.525 100 85.9375C100 83.35 97.9 81.25 95.3125 81.25H4.6875C2.1 81.25 0 83.35 0 85.9375C0 88.525 2.1 90.625 4.6875 90.625Z" fill="#323232"/>
<path d="M4.6875 128.125H95.3125C97.9 128.125 100 126.025 100 123.438C100 120.85 97.9 118.75 95.3125 118.75H4.6875C2.1 118.75 0 120.85 0 123.438C0 126.025 2.1 128.125 4.6875 128.125Z" fill="#323232"/>
<path d="M4.6875 146.875H95.3125C97.9 146.875 100 144.775 100 142.188C100 139.6 97.9 137.5 95.3125 137.5H4.6875C2.1 137.5 0 139.6 0 142.188C0 144.775 2.1 146.875 4.6875 146.875Z" fill="#323232"/>
<path d="M131.25 93.75C141.605 93.75 150 85.3553 150 75C150 64.6447 141.605 56.25 131.25 56.25C120.895 56.25 112.5 64.6447 112.5 75C112.5 85.3553 120.895 93.75 131.25 93.75Z" fill="#323232"/>
<path d="M131.25 150C141.605 150 150 141.605 150 131.25C150 120.895 141.605 112.5 131.25 112.5C120.895 112.5 112.5 120.895 112.5 131.25C112.5 141.605 120.895 150 131.25 150Z" fill="#323232"/>
</svg>
