<svg width="160" height="150" viewBox="0 0 160 150" fill="none" xmlns="http://www.w3.org/2000/svg">
<path d="M158.694 91.114L130.478 144.515C129.098 147.171 125.184 149.979 122.163 149.979L9.00951 150C6.61902 150 4.32712 149.052 2.63802 147.362C0.948922 145.671 0 143.382 0 140.99L0.0183158 53.1259C0.0183158 48.1569 4.04645 44.125 9.01597 44.1202L17.2891 44.1124V51.7878H11.7542C10.6709 51.7878 9.63036 52.2177 8.86379 52.9842C8.09803 53.7508 7.66733 54.7905 7.66733 55.8746L7.67541 138.241C7.67541 140.5 9.50619 142.328 11.7631 142.328H17.4316L44.1727 88.2325C45.6835 85.2107 48.5383 82.7685 51.5559 82.7685H117.046L117.068 60.9988C121.344 61.3952 124.719 64.9423 124.719 69.3198V82.7687H154.755C158.302 82.8051 161.289 86.3126 158.694 91.114ZM22.5064 115.097C22.2621 88.1703 22.5064 7.38802 22.5064 7.38802C22.5064 3.3122 25.821 0 29.8928 0H89.046C89.9935 0 90.8975 0.396484 91.5377 1.09383L110.662 21.8718C111.235 22.4975 111.556 23.3166 111.556 24.1653V77.9921H105.352V28.8132C105.352 27.9624 104.661 27.2712 103.809 27.2712H89.1717C87.4587 27.2712 86.0656 25.8806 86.0656 24.1707V7.74706C86.0656 6.89591 85.3747 6.20503 84.5228 6.20503H29.8966C29.2439 6.20503 28.7128 6.73592 28.7128 7.38802V108.324L23.9652 117.929C23.9655 117.928 22.5309 117.823 22.5064 115.097ZM92.2763 21.0694H101.491L92.2763 11.0528V21.0694ZM95.637 33.5902H38.4668C36.3604 33.5902 34.6506 35.3016 34.6506 37.4079C34.6506 39.5127 36.3621 41.2249 38.4668 41.2249H95.6386C97.7449 41.2249 99.4599 39.5113 99.4599 37.4079C99.4564 35.3032 97.7419 33.5902 95.637 33.5902ZM99.4564 59.6388C99.4564 57.5341 97.7436 55.8243 95.637 55.8243H38.4668C36.3604 55.8243 34.6506 57.5373 34.6506 59.6388C34.6506 61.7435 36.3621 63.4533 38.4668 63.4533H95.6386C97.7419 63.4536 99.4564 61.7435 99.4564 59.6388ZM34.6482 82.0202C34.6482 84.1246 36.3604 85.8348 38.4652 85.8348H39.8359C42.2487 79.1099 48.2299 78.2057 48.2299 78.2057H38.4652C36.3637 78.2057 34.6482 79.9155 34.6482 82.0202Z" fill="#323232"/>
</svg>
