<svg width="151" height="150" viewBox="0 0 151 150" fill="none" xmlns="http://www.w3.org/2000/svg">
<path d="M55.6845 37.6943C37.9691 56.0233 41.8349 86.441 62.1276 99.9157C62.7962 100.36 63.6858 100.272 64.2601 99.7107C68.5322 95.5364 72.1463 91.4931 75.3108 86.3509C75.795 85.5641 75.4939 84.5432 74.6816 84.1032C71.5863 82.4263 68.5064 79.282 66.7725 75.9605L66.7704 75.9617C64.6934 71.8259 63.9863 67.1898 65.0859 62.4018C65.0871 62.4021 65.0883 62.4024 65.0894 62.4024C66.3547 56.2725 72.9356 50.5702 77.9619 45.2966C77.9513 45.2931 77.941 45.2893 77.9304 45.2858L96.7624 26.0651C104.267 18.4055 116.612 18.3423 124.194 25.925C131.854 33.4295 131.98 45.8363 124.476 53.4957L113.069 65.2256C112.541 65.7685 112.37 66.5605 112.617 67.2765C115.243 74.8927 115.889 85.6317 114.129 93.7452C114.08 93.9723 114.36 94.121 114.523 93.955L138.8 69.1766C154.309 53.3479 154.177 27.5766 138.508 11.9071C122.516 -4.08407 96.4834 -3.95099 80.6564 12.2024L55.7817 37.5903C55.7488 37.625 55.7176 37.6602 55.6845 37.6943Z" fill="#323232"/>
<path d="M101.07 103.406C101.07 103.407 101.07 103.408 101.069 103.409C101.085 103.402 101.099 103.396 101.115 103.389C106.069 94.3295 107.045 83.9389 104.723 73.8098L104.712 73.8206L104.701 73.8156C102.496 64.794 96.4461 55.8356 88.2297 50.3199C87.5229 49.8455 86.3939 49.9004 85.732 50.4357C81.5701 53.8009 77.4963 58.1162 74.8082 63.623C74.386 64.4876 74.7022 65.5261 75.5341 66.0091C78.6538 67.8202 81.4711 70.4719 83.3574 73.9922L83.3604 73.9902C84.8304 76.477 86.279 81.1956 85.3407 86.2656C85.3401 86.2656 85.3392 86.2656 85.3387 86.2656C84.4632 92.9875 77.6752 99.1533 72.2791 104.709L72.2817 104.712C68.1741 108.912 57.7324 119.557 53.5514 123.829C46.0468 131.488 33.64 131.615 25.9807 124.11C18.3213 116.605 18.1947 104.199 25.6992 96.5393L37.1398 84.7741C37.6583 84.2409 37.8346 83.4659 37.604 82.7588C35.0637 74.9646 34.3677 64.4677 35.9711 56.3632C36.0158 56.1373 35.7379 55.9931 35.5766 56.1576L11.6646 80.5631C-4.00312 96.5543 -3.87034 122.59 11.9601 138.42C27.9504 154.087 53.8519 153.823 69.519 137.832C74.9619 131.744 98.2607 110.172 101.07 103.406Z" fill="#323232"/>
</svg>
