<svg width="150" height="150" viewBox="0 0 150 150" fill="none" xmlns="http://www.w3.org/2000/svg">
<path d="M67.6758 74.707H82.3242V83.4961H67.6758V74.707Z" fill="#323232"/>
<path d="M53.0273 21.9727H96.9727V30.7617H53.0273V21.9727Z" fill="#323232"/>
<path d="M136.816 0H13.1836C5.90244 0 0 5.90244 0 13.1836V92.2852C0 99.5663 5.90244 105.469 13.1836 105.469H136.816C144.098 105.469 150 99.5663 150 92.2852V13.1836C150 5.90244 144.098 0 136.816 0ZM132.129 87.8906C132.129 90.3176 130.161 92.2852 127.734 92.2852H104.297C101.87 92.2852 99.9023 90.3176 99.9023 87.8906V70.3125C99.9023 67.8855 101.87 65.918 104.297 65.918H111.621V57.1289H79.3945V65.918H86.7188C89.1457 65.918 91.1133 67.8855 91.1133 70.3125V87.8906C91.1133 90.3176 89.1457 92.2852 86.7188 92.2852H63.2812C60.8543 92.2852 58.8867 90.3176 58.8867 87.8906V70.3125C58.8867 67.8855 60.8543 65.918 63.2812 65.918H70.6055V57.1289H38.3789V65.918H45.7031C48.1301 65.918 50.0977 67.8855 50.0977 70.3125V87.8906C50.0977 90.3176 48.1301 92.2852 45.7031 92.2852H22.2656C19.8387 92.2852 17.8711 90.3176 17.8711 87.8906V70.3125C17.8711 67.8855 19.8387 65.918 22.2656 65.918H29.5898V52.7344C29.5898 50.3074 31.5574 48.3398 33.9844 48.3398H70.6055V39.5508H48.6328C46.2059 39.5508 44.2383 37.5832 44.2383 35.1562V17.5781C44.2383 15.1512 46.2059 13.1836 48.6328 13.1836H101.367C103.794 13.1836 105.762 15.1512 105.762 17.5781V35.1562C105.762 37.5832 103.794 39.5508 101.367 39.5508H79.3945V48.3398H116.016C118.443 48.3398 120.41 50.3074 120.41 52.7344V65.918H127.734C130.161 65.918 132.129 67.8855 132.129 70.3125V87.8906Z" fill="#323232"/>
<path d="M26.6602 74.707H41.3086V83.4961H26.6602V74.707Z" fill="#323232"/>
<path d="M108.691 74.707H123.34V83.4961H108.691V74.707Z" fill="#323232"/>
<path d="M79.3945 124.389V114.258H70.6055V124.389C65.4905 126.203 61.8164 131.087 61.8164 136.816C61.8164 144.086 67.7306 150 75 150C82.2694 150 88.1836 144.086 88.1836 136.816C88.1836 131.087 84.5095 126.203 79.3945 124.389ZM75 141.211C72.5769 141.211 70.6055 139.24 70.6055 136.816C70.6055 134.393 72.5769 132.422 75 132.422C77.4231 132.422 79.3945 134.393 79.3945 136.816C79.3945 139.24 77.4231 141.211 75 141.211Z" fill="#323232"/>
</svg>
