<svg width="150" height="150" viewBox="0 0 150 150" fill="none" xmlns="http://www.w3.org/2000/svg">
<path d="M36.2069 80.1724C36.2069 88.868 38.7854 97.3683 43.6164 104.598C48.4474 111.828 55.3139 117.464 63.3475 120.791C71.3812 124.119 80.2212 124.99 88.7497 123.293C97.2781 121.597 105.112 117.409 111.261 111.261C117.409 105.112 121.597 97.2781 123.293 88.7497C124.99 80.2212 124.119 71.3812 120.791 63.3475C117.464 55.3139 111.828 48.4474 104.598 43.6164C97.3683 38.7854 88.868 36.2069 80.1724 36.2069C68.516 36.2199 57.3408 40.8562 49.0985 49.0985C40.8562 57.3408 36.2199 68.516 36.2069 80.1724ZM118.966 80.1724C118.966 87.845 116.69 95.3452 112.428 101.725C108.165 108.104 102.106 113.076 95.0179 116.013C87.9294 118.949 80.1294 119.717 72.6043 118.22C65.0791 116.723 58.1669 113.029 52.7416 107.603C47.3162 102.178 43.6216 95.2657 42.1247 87.7406C40.6279 80.2155 41.3961 72.4155 44.3323 65.3269C47.2684 58.2384 52.2406 52.1798 58.6201 47.9171C64.9996 43.6545 72.4999 41.3793 80.1724 41.3793C90.4574 41.391 100.318 45.4818 107.59 52.7544C114.863 60.027 118.954 69.8874 118.966 80.1724Z" fill="#323232"/>
<path d="M67.2413 69.8276H72.4137V85.3448H67.2413V69.8276Z" fill="#323232"/>
<path d="M46.5518 80.1724C46.5654 81.9053 46.7124 83.6345 46.9914 85.3449H62.069V67.2414C62.069 66.5555 62.3415 65.8977 62.8265 65.4127C63.3115 64.9277 63.9693 64.6552 64.6552 64.6552H75.0001C75.686 64.6552 76.3438 64.9277 76.8288 65.4127C77.3138 65.8977 77.5863 66.5555 77.5863 67.2414V85.3449H82.7587V59.4828C82.7587 58.7969 83.0312 58.1391 83.5162 57.6541C84.0012 57.169 84.659 56.8966 85.3449 56.8966H95.6897C96.3756 56.8966 97.0334 57.169 97.5184 57.6541C98.0034 58.1391 98.2759 58.7969 98.2759 59.4828V85.3449H103.448V55.9681C98.7034 51.3894 92.7154 48.309 86.2313 47.1111C79.7471 45.9132 73.0538 46.6509 66.9861 49.2321C60.9185 51.8133 55.7451 56.1239 52.1112 61.6261C48.4773 67.1283 46.5438 73.5786 46.5518 80.1724Z" fill="#323232"/>
<path d="M23.2758 146.343V126.724H3.65686L23.2758 146.343Z" fill="#323232"/>
<path d="M87.931 62.069H93.1034V85.3448H87.931V62.069Z" fill="#323232"/>
<path d="M148.081 138.807L119.193 109.914C116.525 113.405 113.405 116.525 109.914 119.193L138.802 148.081C140.038 149.279 141.696 149.943 143.417 149.929C145.139 149.916 146.786 149.226 148.003 148.009C149.221 146.791 149.911 145.144 149.924 143.423C149.938 141.701 149.274 140.043 148.076 138.807H148.081Z" fill="#323232"/>
<path d="M31.0345 80.1724C31.0305 71.6712 33.2332 63.3145 37.4271 55.9197C41.6211 48.525 47.6626 42.3455 54.9607 37.9856C62.2589 33.6257 70.5637 31.2349 79.0629 31.0468C87.562 30.8588 95.9645 32.8801 103.448 36.9129V0H0V121.552H25.8621C26.548 121.552 27.2058 121.824 27.6908 122.309C28.1758 122.794 28.4483 123.452 28.4483 124.138V150H103.448V123.432C95.9645 127.465 87.562 129.486 79.0629 129.298C70.5637 129.11 62.2589 126.719 54.9607 122.359C47.6626 117.999 41.6211 111.82 37.4271 104.425C33.2332 97.0304 31.0305 88.6737 31.0345 80.1724ZM82.7586 10.3448H98.2759V15.5172H82.7586V10.3448ZM15.5172 10.3448H77.5862V15.5172H15.5172V10.3448ZM5.17241 20.6897H98.2759V25.8621H5.17241V20.6897ZM5.17241 36.2069H31.0345V41.3793H5.17241V36.2069ZM5.17241 46.5517H31.0345V51.7241H5.17241V46.5517ZM5.17241 62.069V56.8966H31.0345V62.069H5.17241Z" fill="#323232"/>
<path d="M50.3767 95.6896H103.448V90.5172H48.1965C48.7775 92.2992 49.5068 94.0294 50.3767 95.6896Z" fill="#323232"/>
<path d="M108.621 62.3276V98.0172C112.003 92.6801 113.8 86.4913 113.8 80.1724C113.8 73.8535 112.003 67.6648 108.621 62.3276Z" fill="#323232"/>
<path d="M80.1724 113.793C88.8587 113.793 97.2049 110.416 103.448 104.377V100.862H53.7284C56.8628 104.886 60.8738 108.143 65.4561 110.383C70.0385 112.624 75.0715 113.79 80.1724 113.793Z" fill="#323232"/>
</svg>
