<svg width="148" height="150" viewBox="0 0 148 150" fill="none" xmlns="http://www.w3.org/2000/svg">
<path d="M7.25806 150H21.7742C25.7661 150 29.0323 146.735 29.0323 142.742V7.25806C29.0323 3.26613 25.7661 0 21.7742 0H7.25806C3.26613 0 0 3.26613 0 7.25806V142.742C0 146.735 3.26613 150 7.25806 150Z" fill="#323232"/>
<path d="M110.2 92.7822H140.442C144.555 92.7822 147.943 89.3952 147.943 85.2822V64.8387C147.943 60.7258 144.555 57.3387 140.442 57.3387H110.2C106.089 57.3387 102.702 53.9516 102.702 49.8387V36.8952C102.702 30.6048 95.4435 26.9758 90.4838 30.8468L42.0967 69.5564C38.2257 72.5806 38.2257 78.5081 42.0967 81.5322L90.4838 119.153C95.4435 123.024 102.702 119.517 102.702 113.226V100.282C102.702 96.1693 106.089 92.7822 110.2 92.7822Z" fill="#323232"/>
</svg>
